<svg width="122" height="138" viewBox="0 0 122 138" fill="none" xmlns="http://www.w3.org/2000/svg">
<path d="M68.7802 137.56C67.6044 137.56 67.0166 136.972 67.0166 135.797V116.397C67.0166 115.221 67.6044 114.634 68.7802 114.634C69.9559 114.634 70.5438 115.221 70.5438 116.397V135.797C70.5438 136.972 69.9559 137.56 68.7802 137.56ZM68.7802 22.9267C67.6044 22.9267 67.0166 22.3389 67.0166 21.1631V1.76359C67.0166 0.587862 67.6044 0 68.7802 0C69.9559 0 70.5438 0.587862 70.5438 1.76359V21.1631C70.5438 22.3389 69.9559 22.9267 68.7802 22.9267ZM75.3055 115.868C75.0703 114.81 75.5406 114.163 76.7163 113.928C77.8921 113.693 78.5975 114.163 78.8327 115.339L82.1835 134.21C82.4186 135.385 81.9483 136.091 80.7726 136.326H80.4199C79.4793 136.326 78.8914 135.856 78.6563 134.915L75.3055 115.868ZM55.3769 2.9981C55.1417 1.93994 55.612 1.29328 56.7877 1.05814C57.9635 0.822993 58.6689 1.29328 58.904 2.46901L62.2549 21.5158C62.49 22.6916 62.0197 23.397 60.844 23.6321H60.4913C59.5507 23.6321 58.9628 23.1618 58.7277 22.2213L55.3769 2.9981ZM83.418 114.105C82.9477 113.046 83.3004 112.282 84.4761 111.812C85.5343 111.342 86.2985 111.694 86.7688 112.87L93.2941 131.035C93.6468 132.211 93.2941 132.975 92.236 133.328C92.1184 133.445 91.942 133.504 91.7069 133.504C90.8839 133.504 90.3548 133.093 90.1197 132.27L83.418 114.105ZM44.2662 6.34893C43.7959 5.17319 44.1486 4.40897 45.3244 4.05625C46.265 3.70353 46.9704 4.05625 47.4407 5.11441L54.1423 23.2794C54.495 24.3376 54.1423 25.1018 53.0842 25.5721C52.9666 25.6897 52.7902 25.7485 52.5551 25.7485C51.7321 25.7485 51.1442 25.337 50.7915 24.514L44.2662 6.34893ZM91.7069 108.461C92.6475 107.873 93.4705 108.05 94.1759 108.99L103.699 125.744C104.287 126.802 104.111 127.625 103.17 128.213C102.935 128.331 102.641 128.39 102.288 128.39C101.465 128.39 100.936 128.096 100.701 127.508L91.0014 110.754C90.7663 110.401 90.7075 109.989 90.8251 109.519C90.9427 109.049 91.2366 108.696 91.7069 108.461ZM33.6847 11.6397C33.2144 10.5816 33.4495 9.75855 34.3901 9.17069C35.4482 8.58283 36.2712 8.81797 36.8591 9.87612L46.5589 26.6303C47.0292 27.806 46.794 28.5702 45.8534 28.9229C45.3832 29.1581 45.0892 29.2756 44.9716 29.2756C44.2662 29.2756 43.7371 28.9817 43.3844 28.3939L33.6847 11.6397ZM113.046 118.866C113.752 119.689 113.693 120.512 112.87 121.335C112.4 121.57 112.047 121.688 111.812 121.688C111.224 121.688 110.754 121.512 110.401 121.159L98.0558 106.345C97.7031 105.992 97.5561 105.551 97.6149 105.022C97.6737 104.493 97.8795 104.111 98.2322 103.876C98.5849 103.523 99.0258 103.376 99.5549 103.435C100.084 103.494 100.466 103.699 100.701 104.052L113.046 118.866ZM24.3376 18.5177C23.6322 17.5771 23.6909 16.7541 24.514 16.0487C25.4545 15.2257 26.2775 15.2845 26.983 16.2251L39.5045 31.0393C40.3275 31.9798 40.2687 32.8029 39.3281 33.5083C38.9754 33.861 38.5639 34.0374 38.0936 34.0374C37.6233 34.0374 37.2118 33.8022 36.8591 33.3319L24.3376 18.5177ZM121.335 110.401C122.158 111.224 122.217 112.047 121.512 112.87C121.159 113.34 120.689 113.575 120.101 113.575C119.866 113.575 119.513 113.458 119.043 113.223L104.052 100.701C103.111 99.8782 103.053 99.0552 103.876 98.2322C104.581 97.2916 105.404 97.174 106.345 97.8795L121.335 110.401ZM16.4014 26.983C15.9311 26.7478 15.696 26.3657 15.696 25.8366C15.696 25.3076 15.8136 24.8667 16.0487 24.5139C16.8717 23.6909 17.7535 23.6322 18.6941 24.3376L33.5083 36.8591C34.4489 37.5645 34.5077 38.3875 33.6847 39.3281C33.3319 39.6808 32.8616 39.8572 32.2738 39.8572C32.0386 39.8572 31.6859 39.7396 31.2156 39.5045L16.4014 26.983ZM9.87613 36.8591C8.93554 36.1537 8.75918 35.3307 9.34704 34.3901C9.58218 33.9198 9.9349 33.6259 10.4052 33.5083C10.8755 33.3907 11.287 33.4495 11.6397 33.6847L28.3939 43.3844C29.452 43.9723 29.6872 44.7953 29.0993 45.8534C28.7466 46.4413 28.2175 46.7352 27.5121 46.7352C27.3945 46.7352 27.1005 46.6177 26.6303 46.3825L9.87613 36.8591ZM5.29078 47.4407C4.11505 47.088 3.76233 46.3237 4.23262 45.148C4.46776 43.9723 5.17321 43.6196 6.34893 44.0898L24.6903 50.7915C25.866 51.2618 26.2188 52.026 25.7485 53.0842C25.3958 53.7896 24.8079 54.1423 23.9849 54.1423H23.4558L5.29078 47.4407ZM2.46902 58.7277C1.99874 58.7277 1.61662 58.5219 1.3227 58.1104C1.02876 57.6989 0.940573 57.258 1.05815 56.7877C1.29329 55.612 1.99873 55.1417 3.17445 55.3769L22.2213 58.7277C23.397 58.9628 23.8673 59.6095 23.6321 60.6676C23.397 61.7258 22.8091 62.2549 21.8686 62.2549H21.5158L2.46902 58.7277ZM1.76359 70.5437C0.587862 70.5437 0 69.9559 0 68.7802C0 67.6044 0.587862 67.0166 1.76359 67.0166H21.1631C22.3389 67.0166 22.9267 67.6044 22.9267 68.7802C22.9267 69.9559 22.3389 70.5437 21.1631 70.5437H1.76359ZM21.6922 75.3055C22.7504 75.0703 23.397 75.5406 23.6322 76.7163C23.8673 77.7745 23.397 78.4212 22.2213 78.6563L3.17447 82.0071C3.0569 82.1247 2.93933 82.1835 2.82176 82.1835C1.88117 82.1835 1.29331 81.6544 1.05816 80.5963C0.823019 79.5381 1.29331 78.8914 2.46904 78.6563L21.6922 75.3055ZM23.4558 83.418C24.6315 82.9477 25.3958 83.3004 25.7485 84.4762C26.1012 85.4167 25.7485 86.1222 24.6903 86.5925L6.34893 93.2941C6.23135 93.2941 6.14317 93.3235 6.08439 93.3823C6.0256 93.4411 5.93743 93.4705 5.81985 93.4705C4.99685 93.4705 4.40898 93.059 4.05626 92.236C3.58597 91.1778 3.93869 90.4136 5.11442 89.9433L23.4558 83.418ZM26.8066 91.0014C27.6296 90.4136 28.3939 90.5899 29.0993 91.5305C29.6872 92.4711 29.5108 93.2941 28.5702 93.9995L11.6397 103.699C11.1694 103.934 10.8755 104.052 10.7579 104.052C10.0525 104.052 9.52342 103.758 9.1707 103.17C8.58284 102.112 8.81798 101.289 9.87613 100.701L26.8066 91.0014ZM103.876 39.3282C103.17 38.3876 103.229 37.5058 104.052 36.6828L118.866 24.3376C119.219 23.9849 119.66 23.8379 120.189 23.8967C120.718 23.9555 121.1 24.1612 121.335 24.5139C122.158 25.4545 122.099 26.2775 121.159 26.983L106.345 39.5045C105.874 39.7396 105.522 39.8572 105.287 39.8572C104.699 39.8572 104.228 39.6809 103.876 39.3282ZM31.2156 97.8795C32.1562 97.174 32.9792 97.2916 33.6846 98.2322C34.3901 99.0552 34.3313 99.8782 33.5083 100.701L18.5177 113.046C18.2826 113.399 17.9299 113.575 17.4596 113.575C16.9893 113.575 16.519 113.34 16.0487 112.87C15.3432 111.929 15.4608 111.106 16.4014 110.401L31.2156 97.8795ZM98.2322 33.5083C97.2916 32.8029 97.2328 31.9798 98.0558 31.0393L110.401 16.4014C111.106 15.4609 111.929 15.3433 112.87 16.0487C113.693 16.9893 113.752 17.8123 113.046 18.5177L100.701 33.3319C100.349 33.8022 99.8782 34.0374 99.2903 34.0374C98.9376 34.0374 98.5849 33.861 98.2322 33.5083ZM39.3281 103.699C40.1511 104.522 40.2099 105.404 39.5045 106.345L27.1593 121.159C26.8066 121.512 26.3363 121.688 25.7485 121.688C25.2782 121.688 24.9255 121.57 24.6903 121.335C23.7497 120.63 23.6321 119.807 24.3376 118.866L36.8591 104.052C37.5645 103.111 38.3876 102.994 39.3281 103.699ZM91.7069 29.0993C90.6487 28.5114 90.4136 27.6884 91.0014 26.6303L100.701 9.87612C101.289 8.93553 102.112 8.70039 103.17 9.17069C104.111 9.87612 104.287 10.6991 103.699 11.6397L93.9996 28.3939C93.7644 28.9817 93.2941 29.2756 92.5887 29.2756C92.1184 29.2756 91.8244 29.2169 91.7069 29.0993ZM45.8534 108.285C46.9116 108.873 47.1467 109.696 46.5589 110.754L36.8591 127.508C36.5064 128.096 35.9773 128.39 35.2719 128.39C34.9192 128.39 34.6252 128.331 34.3901 128.213C33.4495 127.625 33.2731 126.802 33.861 125.744L43.3844 108.99C43.9723 108.05 44.7953 107.814 45.8534 108.285ZM84.4761 25.5721C83.418 25.1018 83.0653 24.3376 83.418 23.2794L90.1197 5.11441C90.5899 4.05625 91.2954 3.70353 92.236 4.05625C93.2941 4.40897 93.6468 5.17319 93.2941 6.34893L86.7688 24.5139C86.2985 25.3369 85.7107 25.7485 85.0052 25.7485C84.7701 25.7485 84.5937 25.6897 84.4761 25.5721ZM53.0842 111.812C54.2599 112.282 54.6126 113.046 54.1423 114.105L47.4407 132.27C47.3231 133.093 46.794 133.504 45.8534 133.504C45.6183 133.504 45.3832 133.445 45.148 133.328C44.2074 133.093 43.8547 132.387 44.0899 131.211L50.7915 112.87C51.2618 111.694 52.026 111.342 53.0842 111.812ZM76.7163 23.4558C75.5406 23.2206 75.0703 22.574 75.3055 21.5158L78.6563 2.29265C78.8914 1.11692 79.5969 0.646635 80.7726 0.881779C81.9483 1.11692 82.4186 1.82237 82.1835 2.99809L78.8327 22.0449C78.5975 23.1031 78.0096 23.6321 77.0691 23.6321C76.9515 23.6321 76.8339 23.5734 76.7163 23.4558ZM56.7877 136.502C55.612 136.267 55.1417 135.562 55.3769 134.386L58.7277 115.339C58.9628 114.163 59.6683 113.693 60.844 113.928C61.3143 113.928 61.6964 114.134 61.9903 114.545C62.2843 114.957 62.3724 115.398 62.2549 115.868L58.904 134.915C58.6689 135.973 58.081 136.502 57.1404 136.502H56.7877Z" fill="white"/>
</svg>
