<svg width="477" height="211" viewBox="0 0 477 211" fill="none" xmlns="http://www.w3.org/2000/svg">
<path d="M46.685 95.92C33.9703 95.92 23.133 91.6107 14.173 82.992C5.29833 74.3733 0.861001 62.9387 0.861001 48.688C0.861001 34.5227 5.38367 23.088 14.429 14.384C23.4743 5.68 34.1837 1.328 46.557 1.328C57.4797 1.328 66.4397 4.10133 73.437 9.64799C80.5197 15.1947 85.1703 22.2347 87.389 30.768L72.925 35.632C71.4743 29.744 68.5303 24.9653 64.093 21.296C59.6557 17.6267 53.8103 15.792 46.557 15.792C38.4503 15.792 31.4103 18.6933 25.437 24.496C19.549 30.2133 16.605 38.2773 16.605 48.688C16.605 58.8427 19.549 66.8213 25.437 72.624C31.325 78.3413 38.4077 81.2 46.685 81.2C53.7677 81.2 59.613 79.28 64.221 75.44C68.829 71.6 71.9863 66.864 73.693 61.232L87.773 65.84C85.5543 74.288 80.861 81.4133 73.693 87.216C66.6103 93.0187 57.6077 95.92 46.685 95.92ZM92.28 77.104C92.28 71.8133 93.9867 67.5893 97.4 64.432C100.899 61.1893 105.464 59.1413 111.096 58.288L127.096 55.856C130.168 55.4293 131.704 53.936 131.704 51.376C131.704 48.56 130.723 46.2987 128.76 44.592C126.797 42.8 123.853 41.904 119.928 41.904C116.173 41.904 113.187 42.9707 110.968 45.104C108.749 47.152 107.469 49.84 107.128 53.168L93.56 50.096C94.1573 44.464 96.8453 39.6853 101.624 35.76C106.403 31.7493 112.461 29.744 119.8 29.744C128.845 29.744 135.501 31.92 139.768 36.272C144.12 40.624 146.296 46.2133 146.296 53.04V84.016C146.296 88.112 146.552 91.44 147.064 94H133.24C132.813 92.72 132.6 90.0747 132.6 86.064C128.504 92.6347 122.104 95.92 113.4 95.92C107.085 95.92 101.965 94.0853 98.04 90.416C94.2 86.6613 92.28 82.224 92.28 77.104ZM116.216 84.272C120.824 84.272 124.536 83.0347 127.352 80.56C130.253 78 131.704 73.8613 131.704 68.144V65.328L115.448 67.76C109.901 68.6987 107.128 71.5147 107.128 76.208C107.128 78.4267 107.939 80.3467 109.56 81.968C111.181 83.504 113.4 84.272 116.216 84.272ZM175.253 58.032V94H160.405V31.664H174.869V39.984C176.832 36.5707 179.434 34.0533 182.677 32.432C186.005 30.7253 189.546 29.872 193.301 29.872C200.64 29.872 206.229 32.176 210.069 36.784C213.909 41.392 215.829 47.3227 215.829 54.576V94H200.981V57.136C200.981 52.9547 199.957 49.6267 197.909 47.152C195.861 44.592 192.618 43.312 188.181 43.312C184.085 43.312 180.885 44.72 178.581 47.536C176.362 50.2667 175.253 53.7653 175.253 58.032ZM244.785 94H230.065V31.664H244.785V94ZM230.577 16.56C228.7 14.6827 227.761 12.4213 227.761 9.77599C227.761 7.13066 228.7 4.86933 230.577 2.992C232.454 1.02933 234.716 0.0479965 237.361 0.0479965C240.092 0.0479965 242.396 0.986664 244.273 2.864C246.15 4.74133 247.089 7.04533 247.089 9.77599C247.089 12.4213 246.15 14.6827 244.273 16.56C242.396 18.4373 240.092 19.376 237.361 19.376C234.716 19.376 232.454 18.4373 230.577 16.56ZM254.596 77.104L267.524 73.52C267.78 76.5067 269.017 79.024 271.236 81.072C273.455 83.12 276.441 84.144 280.196 84.144C283.097 84.144 285.359 83.4613 286.98 82.096C288.687 80.7307 289.54 79.024 289.54 76.976C289.54 73.392 287.108 71.088 282.244 70.064L273.028 68.016C267.652 66.8213 263.513 64.6027 260.612 61.36C257.711 58.1173 256.26 54.2773 256.26 49.84C256.26 44.3787 258.479 39.6853 262.916 35.76C267.353 31.7493 272.772 29.744 279.172 29.744C283.268 29.744 286.895 30.3413 290.052 31.536C293.209 32.7307 295.641 34.3093 297.348 36.272C299.14 38.1493 300.505 39.984 301.444 41.776C302.383 43.568 302.98 45.36 303.236 47.152L290.692 50.736C290.351 48.3467 289.241 46.2133 287.364 44.336C285.572 42.3733 282.841 41.392 279.172 41.392C276.612 41.392 274.479 42.1173 272.772 43.568C271.065 44.9333 270.212 46.5973 270.212 48.56C270.212 52.0587 272.303 54.2347 276.484 55.088L285.956 57.008C291.759 58.288 296.196 60.592 299.268 63.92C302.34 67.248 303.876 71.2587 303.876 75.952C303.876 81.1573 301.785 85.808 297.604 89.904C293.508 93.9147 287.748 95.92 280.324 95.92C276.057 95.92 272.217 95.28 268.804 94C265.476 92.72 262.831 91.0987 260.868 89.136C258.991 87.088 257.497 85.0827 256.388 83.12C255.364 81.072 254.767 79.0667 254.596 77.104ZM333.576 12.592V31.664H346.504V44.848H333.576V73.776C333.576 76.5067 334.216 78.512 335.496 79.792C336.776 80.9867 338.781 81.584 341.512 81.584C343.219 81.584 344.925 81.4133 346.632 81.072V93.36C344.413 94.2987 341.384 94.768 337.544 94.768C331.741 94.768 327.176 93.1467 323.848 89.904C320.52 86.576 318.856 82.0107 318.856 76.208V44.848H307.336V31.664H310.536C313.693 31.664 316.083 30.768 317.704 28.976C319.325 27.184 320.136 24.8373 320.136 21.936V12.592H333.576ZM367.663 55.984H398.255C398.084 52.0587 396.676 48.7733 394.031 46.128C391.471 43.4827 387.759 42.16 382.895 42.16C378.458 42.16 374.874 43.568 372.143 46.384C369.412 49.1147 367.919 52.3147 367.663 55.984ZM399.919 72.24L412.463 76.208C410.671 81.9253 407.3 86.6613 402.351 90.416C397.487 94.0853 391.471 95.92 384.303 95.92C375.428 95.92 367.876 92.8907 361.647 86.832C355.503 80.7733 352.431 72.6667 352.431 62.512C352.431 52.9547 355.418 45.104 361.391 38.96C367.45 32.816 374.575 29.744 382.767 29.744C392.324 29.744 399.791 32.688 405.167 38.576C410.543 44.3787 413.231 52.2293 413.231 62.128C413.231 64.7733 413.103 66.352 412.847 66.864H367.279C367.45 71.5573 369.156 75.44 372.399 78.512C375.727 81.584 379.695 83.12 384.303 83.12C392.324 83.12 397.53 79.4933 399.919 72.24ZM460.06 31.28V46.384C458.353 46.128 456.732 46 455.196 46C444.017 46 438.428 52.1013 438.428 64.304V94H423.58V31.664H438.044V41.648C439.495 38.32 441.841 35.7173 445.084 33.84C448.327 31.8773 451.996 30.896 456.092 30.896C457.457 30.896 458.78 31.024 460.06 31.28ZM76.847 132.712H47.279V209H31.919V132.712H2.479V118.248H76.847V132.712ZM99.423 172.392V209H84.575V116.328H99.423V152.68C103.434 147.475 109.364 144.872 117.215 144.872C124.554 144.872 130.186 147.176 134.111 151.784C138.036 156.392 139.999 162.323 139.999 169.576V209H125.151V172.136C125.151 167.955 124.127 164.627 122.079 162.152C120.031 159.592 116.788 158.312 112.351 158.312C108.426 158.312 105.311 159.635 103.007 162.28C100.788 164.925 99.5937 168.296 99.423 172.392ZM190.715 146.28V161.384C189.008 161.128 187.387 161 185.851 161C174.672 161 169.083 167.101 169.083 179.304V209H154.235V146.664H168.699V156.648C170.15 153.32 172.496 150.717 175.739 148.84C178.982 146.877 182.651 145.896 186.747 145.896C188.112 145.896 189.435 146.024 190.715 146.28ZM209.013 170.984H239.605C239.434 167.059 238.026 163.773 235.381 161.128C232.821 158.483 229.109 157.16 224.245 157.16C219.808 157.16 216.224 158.568 213.493 161.384C210.762 164.115 209.269 167.315 209.013 170.984ZM241.269 187.24L253.813 191.208C252.021 196.925 248.65 201.661 243.701 205.416C238.837 209.085 232.821 210.92 225.653 210.92C216.778 210.92 209.226 207.891 202.997 201.832C196.853 195.773 193.781 187.667 193.781 177.512C193.781 167.955 196.768 160.104 202.741 153.96C208.8 147.816 215.925 144.744 224.117 144.744C233.674 144.744 241.141 147.688 246.517 153.576C251.893 159.379 254.581 167.229 254.581 177.128C254.581 179.773 254.453 181.352 254.197 181.864H208.629C208.8 186.557 210.506 190.44 213.749 193.512C217.077 196.584 221.045 198.12 225.653 198.12C233.674 198.12 238.88 194.493 241.269 187.24ZM261.09 192.104C261.09 186.813 262.797 182.589 266.21 179.432C269.709 176.189 274.274 174.141 279.906 173.288L295.906 170.856C298.978 170.429 300.514 168.936 300.514 166.376C300.514 163.56 299.533 161.299 297.57 159.592C295.607 157.8 292.663 156.904 288.738 156.904C284.983 156.904 281.997 157.971 279.778 160.104C277.559 162.152 276.279 164.84 275.938 168.168L262.37 165.096C262.967 159.464 265.655 154.685 270.434 150.76C275.213 146.749 281.271 144.744 288.61 144.744C297.655 144.744 304.311 146.92 308.578 151.272C312.93 155.624 315.106 161.213 315.106 168.04V199.016C315.106 203.112 315.362 206.44 315.874 209H302.05C301.623 207.72 301.41 205.075 301.41 201.064C297.314 207.635 290.914 210.92 282.21 210.92C275.895 210.92 270.775 209.085 266.85 205.416C263.01 201.661 261.09 197.224 261.09 192.104ZM285.026 199.272C289.634 199.272 293.346 198.035 296.162 195.56C299.063 193 300.514 188.861 300.514 183.144V180.328L284.258 182.76C278.711 183.699 275.938 186.515 275.938 191.208C275.938 193.427 276.749 195.347 278.37 196.968C279.991 198.504 282.21 199.272 285.026 199.272ZM339.074 177.64C339.074 183.613 340.61 188.435 343.682 192.104C346.754 195.688 350.807 197.48 355.842 197.48C360.706 197.48 364.674 195.645 367.746 191.976C370.818 188.307 372.354 183.485 372.354 177.512C372.354 171.624 370.861 166.931 367.874 163.432C364.887 159.933 360.919 158.184 355.97 158.184C351.021 158.184 346.967 159.976 343.81 163.56C340.653 167.059 339.074 171.752 339.074 177.64ZM386.69 116.328V197.608C386.69 201.789 386.903 205.587 387.33 209H373.122C372.695 206.611 372.482 203.923 372.482 200.936C370.946 203.752 368.557 206.056 365.314 207.848C362.071 209.64 358.359 210.536 354.178 210.536C345.303 210.536 338.093 207.421 332.546 201.192C326.999 194.963 324.226 187.112 324.226 177.64C324.226 168.509 326.999 160.787 332.546 154.472C338.178 148.157 345.303 145 353.922 145C358.871 145 362.839 145.896 365.826 147.688C368.898 149.48 371.031 151.571 372.226 153.96V116.328H386.69ZM396.746 192.104L409.674 188.52C409.93 191.507 411.167 194.024 413.386 196.072C415.605 198.12 418.591 199.144 422.346 199.144C425.247 199.144 427.509 198.461 429.13 197.096C430.837 195.731 431.69 194.024 431.69 191.976C431.69 188.392 429.258 186.088 424.394 185.064L415.178 183.016C409.802 181.821 405.663 179.603 402.762 176.36C399.861 173.117 398.41 169.277 398.41 164.84C398.41 159.379 400.629 154.685 405.066 150.76C409.503 146.749 414.922 144.744 421.322 144.744C425.418 144.744 429.045 145.341 432.202 146.536C435.359 147.731 437.791 149.309 439.498 151.272C441.29 153.149 442.655 154.984 443.594 156.776C444.533 158.568 445.13 160.36 445.386 162.152L432.842 165.736C432.501 163.347 431.391 161.213 429.514 159.336C427.722 157.373 424.991 156.392 421.322 156.392C418.762 156.392 416.629 157.117 414.922 158.568C413.215 159.933 412.362 161.597 412.362 163.56C412.362 167.059 414.453 169.235 418.634 170.088L428.106 172.008C433.909 173.288 438.346 175.592 441.418 178.92C444.49 182.248 446.026 186.259 446.026 190.952C446.026 196.157 443.935 200.808 439.754 204.904C435.658 208.915 429.898 210.92 422.474 210.92C418.207 210.92 414.367 210.28 410.954 209C407.626 207.72 404.981 206.099 403.018 204.136C401.141 202.088 399.647 200.083 398.538 198.12C397.514 196.072 396.917 194.067 396.746 192.104ZM458.83 206.824C456.867 204.776 455.886 202.301 455.886 199.4C455.886 196.499 456.867 194.024 458.83 191.976C460.878 189.928 463.353 188.904 466.254 188.904C469.155 188.904 471.63 189.928 473.678 191.976C475.726 194.024 476.75 196.499 476.75 199.4C476.75 202.301 475.726 204.776 473.678 206.824C471.63 208.787 469.155 209.768 466.254 209.768C463.353 209.768 460.878 208.787 458.83 206.824Z" fill="url(#paint0_linear_2_15)"/>
<path d="M14.173 82.992L13.4763 83.7094L13.4798 83.7127L14.173 82.992ZM14.429 14.384L13.7356 13.6634L13.7356 13.6634L14.429 14.384ZM73.437 9.64799L72.8158 10.4317L72.8204 10.4353L73.437 9.64799ZM87.389 30.768L87.7078 31.7158L88.5914 31.4187L88.3568 30.5164L87.389 30.768ZM72.925 35.632L71.954 35.8712L72.2139 36.9261L73.2437 36.5798L72.925 35.632ZM25.437 24.496L26.1336 25.2134L26.1338 25.2133L25.437 24.496ZM25.437 72.624L24.7351 73.3363L24.7404 73.3414L25.437 72.624ZM64.221 75.44L63.5808 74.6718L63.5808 74.6718L64.221 75.44ZM73.693 61.232L74.004 60.2816L73.0325 59.9636L72.736 60.942L73.693 61.232ZM87.773 65.84L88.7402 66.094L88.9795 65.1827L88.084 64.8896L87.773 65.84ZM73.693 87.216L73.0638 86.4387L73.0593 86.4425L73.693 87.216ZM46.685 94.92C34.2223 94.92 23.6353 90.7063 14.8662 82.2713L13.4798 83.7127C22.6307 92.5151 33.7184 96.92 46.685 96.92V94.92ZM14.8697 82.2746C6.21881 73.8733 1.861 62.7131 1.861 48.688H-0.138999C-0.138999 63.1642 4.37785 74.8734 13.4763 83.7094L14.8697 82.2746ZM1.861 48.688C1.861 34.7562 6.29896 23.595 15.1224 15.1046L13.7356 13.6634C4.46838 22.581 -0.138999 34.2891 -0.138999 48.688H1.861ZM15.1224 15.1046C23.9844 6.57694 34.4464 2.328 46.557 2.328V0.327995C33.9209 0.327995 22.9642 4.78305 13.7356 13.6634L15.1224 15.1046ZM46.557 2.328C57.306 2.328 66.032 5.0542 72.8158 10.4317L74.0582 8.86434C66.8474 3.14845 57.6534 0.327995 46.557 0.327995V2.328ZM72.8204 10.4353C79.7342 15.8497 84.2589 22.7031 86.4212 31.0196L88.3568 30.5164C86.0818 21.7662 81.3051 14.5396 74.0536 8.86069L72.8204 10.4353ZM87.0703 29.8202L72.6063 34.6842L73.2437 36.5798L87.7078 31.7158L87.0703 29.8202ZM73.896 35.3928C72.3969 29.3082 69.3421 24.339 64.7303 20.5254L63.4557 22.0666C67.7186 25.5917 70.5518 30.1798 71.954 35.8712L73.896 35.3928ZM64.7303 20.5254C60.0711 16.6726 53.981 14.792 46.557 14.792V16.792C53.6396 16.792 59.2402 18.5807 63.4557 22.0666L64.7303 20.5254ZM46.557 14.792C38.1823 14.792 30.8945 17.8003 24.7402 23.7787L26.1338 25.2133C31.9262 19.5864 38.7183 16.792 46.557 16.792V14.792ZM24.7404 23.7786C18.6096 29.7316 15.605 38.0837 15.605 48.688H17.605C17.605 38.471 20.4884 30.695 26.1336 25.2134L24.7404 23.7786ZM15.605 48.688C15.605 59.0453 18.6145 67.3044 24.7351 73.3362L26.1389 71.9117C20.4835 66.3383 17.605 58.64 17.605 48.688H15.605ZM24.7404 73.3414C30.8168 79.2417 38.15 82.2 46.685 82.2V80.2C38.6653 80.2 31.8332 77.441 26.1336 71.9066L24.7404 73.3414ZM46.685 82.2C53.9573 82.2 60.0421 80.2241 64.8612 76.2082L63.5808 74.6718C59.1839 78.3359 53.578 80.2 46.685 80.2V82.2ZM64.8612 76.2082C69.6162 72.2457 72.8856 67.3447 74.65 61.522L72.736 60.942C71.0871 66.3833 68.0418 70.9543 63.5808 74.6718L64.8612 76.2082ZM73.382 62.1824L87.462 66.7904L88.084 64.8896L74.004 60.2816L73.382 62.1824ZM86.8058 65.586C84.6444 73.8161 80.0761 80.7621 73.0638 86.4388L74.3222 87.9932C81.6459 82.0646 86.4643 74.7599 88.7402 66.094L86.8058 65.586ZM73.0593 86.4425C66.1882 92.0717 57.423 94.92 46.685 94.92V96.92C57.7923 96.92 67.0324 93.9656 74.3267 87.9895L73.0593 86.4425ZM97.4 64.432L98.079 65.1661L98.0798 65.1654L97.4 64.432ZM111.096 58.288L111.246 59.2767L111.246 59.2766L111.096 58.288ZM127.096 55.856L126.958 54.8654L126.946 54.8674L127.096 55.856ZM128.76 44.592L128.086 45.3305L128.095 45.3387L128.104 45.3466L128.76 44.592ZM110.968 45.104L111.646 45.8388L111.654 45.8319L111.661 45.8248L110.968 45.104ZM107.128 53.168L106.907 54.1433L108.008 54.3925L108.123 53.27L107.128 53.168ZM93.56 50.096L92.5656 49.9905L92.4718 50.8749L93.3392 51.0713L93.56 50.096ZM101.624 35.76L102.259 36.5328L102.267 36.526L101.624 35.76ZM139.768 36.272L139.054 36.9721L139.061 36.9791L139.768 36.272ZM147.064 94V95H148.284L148.045 93.8039L147.064 94ZM133.24 94L132.291 94.3162L132.519 95H133.24V94ZM132.6 86.064H133.6V82.5695L131.751 85.535L132.6 86.064ZM98.04 90.416L97.3409 91.131L97.3489 91.1389L97.3571 91.1465L98.04 90.416ZM127.352 80.56L128.012 81.3112L128.014 81.3098L127.352 80.56ZM131.704 65.328H132.704V64.1673L131.556 64.339L131.704 65.328ZM115.448 67.76L115.3 66.771L115.291 66.7724L115.281 66.774L115.448 67.76ZM109.56 81.968L108.853 82.6751L108.862 82.6847L108.872 82.694L109.56 81.968ZM93.28 77.104C93.28 72.0497 94.8995 68.1072 98.079 65.1661L96.721 63.6979C93.0739 67.0715 91.28 71.5769 91.28 77.104H93.28ZM98.0798 65.1654C101.405 62.0837 105.773 60.1059 111.246 59.2767L110.946 57.2993C105.155 58.1767 100.393 60.2949 96.7202 63.6986L98.0798 65.1654ZM111.246 59.2766L127.246 56.8446L126.946 54.8674L110.946 57.2994L111.246 59.2766ZM127.234 56.8465C128.89 56.6165 130.274 56.0812 131.249 55.133C132.248 54.1619 132.704 52.8694 132.704 51.376H130.704C130.704 52.4426 130.392 53.1768 129.855 53.699C129.294 54.2441 128.374 54.6689 126.958 54.8655L127.234 56.8465ZM132.704 51.376C132.704 48.2976 131.617 45.751 129.416 43.8374L128.104 45.3466C129.828 46.8463 130.704 48.8224 130.704 51.376H132.704ZM129.434 43.8535C127.216 41.8284 123.986 40.904 119.928 40.904V42.904C123.721 42.904 126.378 43.7716 128.086 45.3305L129.434 43.8535ZM119.928 40.904C115.975 40.904 112.719 42.033 110.275 44.3832L111.661 45.8248C113.654 43.9084 116.372 42.904 119.928 42.904V40.904ZM110.29 44.3692C107.872 46.6008 106.497 49.5237 106.133 53.066L108.123 53.27C108.442 50.1563 109.626 47.7032 111.646 45.8388L110.29 44.3692ZM107.349 52.1927L93.7808 49.1207L93.3392 51.0713L106.907 54.1433L107.349 52.1927ZM94.5544 50.2015C95.1214 44.8557 97.6624 40.3083 102.259 36.5327L100.989 34.9873C96.0283 39.0624 93.1933 44.0723 92.5656 49.9905L94.5544 50.2015ZM102.267 36.526C106.835 32.6923 112.653 30.744 119.8 30.744V28.744C112.27 28.744 105.971 30.8064 100.981 34.994L102.267 36.526ZM119.8 30.744C128.706 30.744 135.05 32.888 139.054 36.9721L140.482 35.5719C135.953 30.952 128.985 28.744 119.8 28.744V30.744ZM139.061 36.9791C143.204 41.1223 145.296 46.4468 145.296 53.04H147.296C147.296 45.9799 145.036 40.1257 140.475 35.5649L139.061 36.9791ZM145.296 53.04V84.016H147.296V53.04H145.296ZM145.296 84.016C145.296 88.1452 145.553 91.5459 146.083 94.1961L148.045 93.8039C147.551 91.3341 147.296 88.0788 147.296 84.016H145.296ZM147.064 93H133.24V95H147.064V93ZM134.189 93.6838C134.015 93.1623 133.862 92.2795 133.757 90.9756C133.653 89.6895 133.6 88.0546 133.6 86.064H131.6C131.6 88.0841 131.654 89.7772 131.763 91.1364C131.871 92.4779 132.038 93.5577 132.291 94.3162L134.189 93.6838ZM131.751 85.535C127.863 91.772 121.81 94.92 113.4 94.92V96.92C122.398 96.92 129.145 93.4973 133.449 86.593L131.751 85.535ZM113.4 94.92C107.292 94.92 102.431 93.1518 98.7229 89.6855L97.3571 91.1465C101.5 95.0189 106.879 96.92 113.4 96.92V94.92ZM98.7391 89.701C95.081 86.1242 93.28 81.9405 93.28 77.104H91.28C91.28 82.5075 93.319 87.1985 97.3409 91.131L98.7391 89.701ZM116.216 85.272C121.009 85.272 124.974 83.9808 128.012 81.3112L126.692 79.8088C124.098 82.0886 120.639 83.272 116.216 83.272V85.272ZM128.014 81.3098C131.216 78.4842 132.704 74.0093 132.704 68.144H130.704C130.704 73.7134 129.291 77.5158 126.69 79.8102L128.014 81.3098ZM132.704 68.144V65.328H130.704V68.144H132.704ZM131.556 64.339L115.3 66.771L115.596 68.749L131.852 66.317L131.556 64.339ZM115.281 66.774C112.385 67.2641 110.08 68.2652 108.496 69.8743C106.891 71.5039 106.128 73.6515 106.128 76.208H108.128C108.128 74.0712 108.752 72.4641 109.92 71.2777C111.109 70.0708 112.964 69.1946 115.615 68.746L115.281 66.774ZM106.128 76.208C106.128 78.7016 107.051 80.8732 108.853 82.6751L110.267 81.2609C108.826 79.8201 108.128 78.1517 108.128 76.208H106.128ZM108.872 82.694C110.724 84.4486 113.214 85.272 116.216 85.272V83.272C113.586 83.272 111.638 82.5594 110.248 81.242L108.872 82.694ZM175.253 94V95H176.253V94H175.253ZM160.405 94H159.405V95H160.405V94ZM160.405 31.664V30.664H159.405V31.664H160.405ZM174.869 31.664H175.869V30.664H174.869V31.664ZM174.869 39.984H173.869V43.7293L175.736 40.4825L174.869 39.984ZM182.677 32.432L183.124 33.3265L183.133 33.3218L182.677 32.432ZM210.069 36.784L210.837 36.1438L210.837 36.1438L210.069 36.784ZM215.829 94V95H216.829V94H215.829ZM200.981 94H199.981V95H200.981V94ZM197.909 47.152L197.128 47.7767L197.133 47.7832L197.139 47.7896L197.909 47.152ZM178.581 47.536L177.807 46.9028L177.805 46.9054L178.581 47.536ZM174.253 58.032V94H176.253V58.032H174.253ZM175.253 93H160.405V95H175.253V93ZM161.405 94V31.664H159.405V94H161.405ZM160.405 32.664H174.869V30.664H160.405V32.664ZM173.869 31.664V39.984H175.869V31.664H173.869ZM175.736 40.4825C177.609 37.2242 180.072 34.8523 183.124 33.3264L182.23 31.5376C178.796 33.2544 176.054 35.9172 174.002 39.4855L175.736 40.4825ZM183.133 33.3218C186.32 31.6879 189.704 30.872 193.301 30.872V28.872C189.388 28.872 185.69 29.7628 182.221 31.5422L183.133 33.3218ZM193.301 30.872C200.416 30.872 205.693 33.0947 209.301 37.4242L210.837 36.1438C206.765 31.2573 200.864 28.872 193.301 28.872V30.872ZM209.301 37.4242C212.961 41.8169 214.829 47.5057 214.829 54.576H216.829C216.829 47.1396 214.857 40.9671 210.837 36.1438L209.301 37.4242ZM214.829 54.576V94H216.829V54.576H214.829ZM215.829 93H200.981V95H215.829V93ZM201.981 94V57.136H199.981V94H201.981ZM201.981 57.136C201.981 52.7931 200.916 49.2165 198.679 46.5144L197.139 47.7896C198.998 50.0368 199.981 53.1162 199.981 57.136H201.981ZM198.69 46.5273C196.391 43.6531 192.808 42.312 188.181 42.312V44.312C192.429 44.312 195.331 45.5308 197.128 47.7767L198.69 46.5273ZM188.181 42.312C183.828 42.312 180.326 43.8236 177.807 46.9028L179.355 48.1692C181.444 45.6164 184.342 44.312 188.181 44.312V42.312ZM177.805 46.9054C175.412 49.85 174.253 53.5862 174.253 58.032H176.253C176.253 53.9444 177.312 50.6834 179.357 48.1666L177.805 46.9054ZM244.785 94V95H245.785V94H244.785ZM230.065 94H229.065V95H230.065V94ZM230.065 31.664V30.664H229.065V31.664H230.065ZM244.785 31.664H245.785V30.664H244.785V31.664ZM230.577 2.992L231.284 3.6991L231.292 3.69125L231.3 3.68322L230.577 2.992ZM244.273 2.864L243.566 3.5711L243.566 3.57111L244.273 2.864ZM244.785 93H230.065V95H244.785V93ZM231.065 94V31.664H229.065V94H231.065ZM230.065 32.664H244.785V30.664H230.065V32.664ZM243.785 31.664V94H245.785V31.664H243.785ZM231.284 15.8529C229.594 14.1623 228.761 12.155 228.761 9.77599H226.761C226.761 12.6876 227.806 15.203 229.87 17.2671L231.284 15.8529ZM228.761 9.77599C228.761 7.39696 229.594 5.38967 231.284 3.6991L229.87 2.28489C227.806 4.34899 226.761 6.86436 226.761 9.77599H228.761ZM231.3 3.68322C232.994 1.91184 234.997 1.048 237.361 1.048V-0.952003C234.435 -0.952003 231.915 0.146818 229.854 2.30077L231.3 3.68322ZM237.361 1.048C239.835 1.048 241.882 1.88721 243.566 3.5711L244.98 2.15689C242.909 0.0861199 240.348 -0.952003 237.361 -0.952003V1.048ZM243.566 3.57111C245.25 5.255 246.089 7.30208 246.089 9.77599H248.089C248.089 6.78857 247.051 4.22766 244.98 2.15689L243.566 3.57111ZM246.089 9.77599C246.089 12.155 245.256 14.1623 243.566 15.8529L244.98 17.2671C247.044 15.203 248.089 12.6876 248.089 9.77599H246.089ZM243.566 15.8529C241.882 17.5368 239.835 18.376 237.361 18.376V20.376C240.348 20.376 242.909 19.3379 244.98 17.2671L243.566 15.8529ZM237.361 18.376C234.982 18.376 232.975 17.5435 231.284 15.8529L229.87 17.2671C231.934 19.3312 234.449 20.376 237.361 20.376V18.376ZM254.596 77.104L254.329 76.1403L253.528 76.3624L253.6 77.1906L254.596 77.104ZM267.524 73.52L268.52 73.4346L268.417 72.2346L267.257 72.5563L267.524 73.52ZM271.236 81.072L270.558 81.8068L270.558 81.8068L271.236 81.072ZM286.98 82.096L286.355 81.3151L286.345 81.323L286.336 81.3311L286.98 82.096ZM282.244 70.064L282.027 71.0402L282.038 71.0425L282.244 70.064ZM273.028 68.016L273.245 67.0398L273.245 67.0398L273.028 68.016ZM260.612 61.36L261.357 60.6932L261.357 60.6932L260.612 61.36ZM262.916 35.76L263.579 36.509L263.587 36.5019L262.916 35.76ZM297.348 36.272L296.593 36.9282L296.609 36.9457L296.625 36.9625L297.348 36.272ZM301.444 41.776L302.33 41.312L302.33 41.312L301.444 41.776ZM303.236 47.152L303.511 48.1135L304.349 47.8739L304.226 47.0106L303.236 47.152ZM290.692 50.736L289.702 50.8774L289.864 52.0125L290.967 51.6975L290.692 50.736ZM287.364 44.336L286.626 45.0103L286.641 45.027L286.657 45.0431L287.364 44.336ZM272.772 43.568L273.397 44.3489L273.408 44.3396L273.42 44.3299L272.772 43.568ZM276.484 55.088L276.284 56.0678L276.285 56.0681L276.484 55.088ZM285.956 57.008L286.171 56.0315L286.163 56.0296L286.155 56.0279L285.956 57.008ZM299.268 63.92L298.533 64.5983L298.533 64.5983L299.268 63.92ZM297.604 89.904L298.304 90.6185L298.304 90.6184L297.604 89.904ZM268.804 94L268.445 94.9334L268.453 94.9363L268.804 94ZM260.868 89.136L260.131 89.8117L260.146 89.8277L260.161 89.8431L260.868 89.136ZM256.388 83.12L255.494 83.5672L255.505 83.5899L255.517 83.6121L256.388 83.12ZM254.863 78.0677L267.791 74.4837L267.257 72.5563L254.329 76.1403L254.863 78.0677ZM266.528 73.6054C266.805 76.8426 268.157 79.591 270.558 81.8068L271.914 80.3372C269.877 78.457 268.755 76.1707 268.52 73.4346L266.528 73.6054ZM270.558 81.8068C273.003 84.0643 276.254 85.144 280.196 85.144V83.144C276.629 83.144 273.906 82.1757 271.914 80.3372L270.558 81.8068ZM280.196 85.144C283.246 85.144 285.766 84.4259 287.624 82.8609L286.336 81.3311C284.952 82.4968 282.948 83.144 280.196 83.144V85.144ZM287.605 82.8769C289.53 81.3364 290.54 79.3505 290.54 76.976H288.54C288.54 78.6975 287.843 80.1249 286.355 81.3151L287.605 82.8769ZM290.54 76.976C290.54 74.9308 289.834 73.1891 288.404 71.834C287.004 70.5077 284.981 69.6183 282.45 69.0854L282.038 71.0425C284.371 71.5337 285.996 72.3083 287.028 73.286C288.03 74.2349 288.54 75.4372 288.54 76.976H290.54ZM282.461 69.0878L273.245 67.0398L272.811 68.9922L282.027 71.0402L282.461 69.0878ZM273.245 67.0398C268.019 65.8784 264.086 63.743 261.357 60.6932L259.867 62.0268C262.941 65.4623 267.285 67.7643 272.811 68.9922L273.245 67.0398ZM261.357 60.6932C258.624 57.6379 257.26 54.0367 257.26 49.84H255.26C255.26 54.518 256.798 58.5968 259.867 62.0268L261.357 60.6932ZM257.26 49.84C257.26 44.6914 259.335 40.2626 263.579 36.509L262.253 35.011C257.622 39.108 255.26 44.0659 255.26 49.84H257.26ZM263.587 36.5019C267.826 32.6696 273.001 30.744 279.172 30.744V28.744C272.543 28.744 266.88 30.8291 262.245 35.0181L263.587 36.5019ZM279.172 30.744C283.172 30.744 286.675 31.3274 289.698 32.4713L290.406 30.6007C287.114 29.3552 283.364 28.744 279.172 28.744V30.744ZM289.698 32.4713C292.746 33.6244 295.023 35.1219 296.593 36.9282L298.103 35.6158C296.26 33.4968 293.673 31.837 290.406 30.6007L289.698 32.4713ZM296.625 36.9625C298.369 38.7903 299.673 40.5502 300.558 42.24L302.33 41.312C301.338 39.4178 299.911 37.5084 298.071 35.5815L296.625 36.9625ZM300.558 42.24C301.45 43.9429 302.008 45.6265 302.246 47.2934L304.226 47.0106C303.952 45.0935 303.315 43.1931 302.33 41.312L300.558 42.24ZM302.961 46.1905L290.417 49.7745L290.967 51.6975L303.511 48.1135L302.961 46.1905ZM291.682 50.5946C291.307 47.9695 290.085 45.6431 288.071 43.6289L286.657 45.0431C288.397 46.7836 289.394 48.7238 289.702 50.8774L291.682 50.5946ZM288.102 43.6617C286.057 41.4219 283.012 40.392 279.172 40.392V42.392C282.671 42.392 285.087 43.3248 286.626 45.0103L288.102 43.6617ZM279.172 40.392C276.411 40.392 274.037 41.1799 272.124 42.8061L273.42 44.3299C274.92 43.0547 276.813 42.392 279.172 42.392V40.392ZM272.147 42.7871C270.234 44.3177 269.212 46.2564 269.212 48.56H271.212C271.212 46.9383 271.897 45.5489 273.397 44.3489L272.147 42.7871ZM269.212 48.56C269.212 50.5234 269.806 52.2049 271.059 53.5088C272.292 54.7923 274.074 55.6167 276.284 56.0678L276.684 54.1082C274.713 53.7059 273.359 53.0157 272.501 52.1232C271.663 51.2511 271.212 50.0953 271.212 48.56H269.212ZM276.285 56.0681L285.757 57.9881L286.155 56.0279L276.683 54.1079L276.285 56.0681ZM285.741 57.9845C291.405 59.2341 295.637 61.4609 298.533 64.5983L300.003 63.2417C296.755 59.723 292.112 57.3419 286.171 56.0315L285.741 57.9845ZM298.533 64.5983C301.428 67.7343 302.876 71.5 302.876 75.952H304.876C304.876 71.0173 303.252 66.7617 300.003 63.2417L298.533 64.5983ZM302.876 75.952C302.876 80.854 300.92 85.2561 296.904 89.1896L298.304 90.6184C302.651 86.3599 304.876 81.4607 304.876 75.952H302.876ZM296.904 89.1895C293.046 92.9678 287.567 94.92 280.324 94.92V96.92C287.929 96.92 293.97 94.8616 298.304 90.6185L296.904 89.1895ZM280.324 94.92C276.157 94.92 272.439 94.2951 269.155 93.0637L268.453 94.9363C271.996 96.2649 275.957 96.92 280.324 96.92V94.92ZM269.163 93.0667C265.93 91.8231 263.415 90.2687 261.575 88.4289L260.161 89.8431C262.246 91.9286 265.022 93.6169 268.445 94.9333L269.163 93.0667ZM261.605 88.4603C259.768 86.4559 258.323 84.5114 257.259 82.6279L255.517 83.6121C256.672 85.654 258.214 87.7201 260.131 89.8117L261.605 88.4603ZM257.282 82.6728C256.306 80.7195 255.75 78.8359 255.592 77.0174L253.6 77.1906C253.783 79.2975 254.422 81.4245 255.494 83.5672L257.282 82.6728ZM333.576 12.592H334.576V11.592H333.576V12.592ZM333.576 31.664H332.576V32.664H333.576V31.664ZM346.504 31.664H347.504V30.664H346.504V31.664ZM346.504 44.848V45.848H347.504V44.848H346.504ZM333.576 44.848V43.848H332.576V44.848H333.576ZM335.496 79.792L334.789 80.4991L334.801 80.5113L334.814 80.5231L335.496 79.792ZM346.632 81.072H347.632V79.8522L346.436 80.0914L346.632 81.072ZM346.632 93.36L347.022 94.281L347.632 94.0227V93.36H346.632ZM323.848 89.904L323.141 90.6112L323.15 90.6202L323.848 89.904ZM318.856 44.848H319.856V43.848H318.856V44.848ZM307.336 44.848H306.336V45.848H307.336V44.848ZM307.336 31.664V30.664H306.336V31.664H307.336ZM317.704 28.976L318.446 29.6469L318.446 29.6469L317.704 28.976ZM320.136 12.592V11.592H319.136V12.592H320.136ZM332.576 12.592V31.664H334.576V12.592H332.576ZM333.576 32.664H346.504V30.664H333.576V32.664ZM345.504 31.664V44.848H347.504V31.664H345.504ZM346.504 43.848H333.576V45.848H346.504V43.848ZM332.576 44.848V73.776H334.576V44.848H332.576ZM332.576 73.776C332.576 76.6389 333.245 78.9548 334.789 80.4991L336.203 79.0849C335.187 78.0692 334.576 76.3744 334.576 73.776H332.576ZM334.814 80.5231C336.359 81.9653 338.664 82.584 341.512 82.584V80.584C338.898 80.584 337.193 80.008 336.178 79.0609L334.814 80.5231ZM341.512 82.584C343.286 82.584 345.058 82.4066 346.828 82.0526L346.436 80.0914C344.792 80.4201 343.151 80.584 341.512 80.584V82.584ZM345.632 81.072V93.36H347.632V81.072H345.632ZM346.242 92.439C344.198 93.3038 341.32 93.768 337.544 93.768V95.768C341.447 95.768 344.628 95.2936 347.022 94.281L346.242 92.439ZM337.544 93.768C331.934 93.768 327.643 92.2058 324.546 89.1878L323.15 90.6202C326.709 94.0875 331.549 95.768 337.544 95.768V93.768ZM324.555 89.1969C321.456 86.0982 319.856 81.811 319.856 76.208H317.856C317.856 82.2103 319.584 87.0538 323.141 90.6111L324.555 89.1969ZM319.856 76.208V44.848H317.856V76.208H319.856ZM318.856 43.848H307.336V45.848H318.856V43.848ZM308.336 44.848V31.664H306.336V44.848H308.336ZM307.336 32.664H310.536V30.664H307.336V32.664ZM310.536 32.664C313.884 32.664 316.581 31.7079 318.446 29.6469L316.962 28.3051C315.584 29.8281 313.502 30.664 310.536 30.664V32.664ZM318.446 29.6469C320.265 27.6356 321.136 25.0328 321.136 21.936H319.136C319.136 24.6418 318.385 26.7324 316.962 28.3051L318.446 29.6469ZM321.136 21.936V12.592H319.136V21.936H321.136ZM320.136 13.592H333.576V11.592H320.136V13.592ZM367.663 55.984L366.665 55.9144L366.591 56.984H367.663V55.984ZM398.255 55.984V56.984H399.299L399.254 55.9406L398.255 55.984ZM394.031 46.128L393.312 46.8234L393.318 46.8293L393.324 46.8351L394.031 46.128ZM372.143 46.384L372.85 47.0911L372.856 47.0857L372.861 47.0801L372.143 46.384ZM399.919 72.24L400.221 71.2866L399.278 70.9885L398.969 71.9271L399.919 72.24ZM412.463 76.208L413.417 76.5071L413.716 75.5554L412.765 75.2546L412.463 76.208ZM402.351 90.416L402.953 91.2143L402.955 91.2127L402.351 90.416ZM361.647 86.832L360.945 87.5441L360.95 87.5489L361.647 86.832ZM361.391 38.96L360.679 38.2578L360.674 38.2629L361.391 38.96ZM405.167 38.576L404.429 39.2503L404.433 39.2556L405.167 38.576ZM412.847 66.864V67.864H413.465L413.741 67.3112L412.847 66.864ZM367.279 66.864V65.864H366.242L366.28 66.9003L367.279 66.864ZM372.399 78.512L371.711 79.238L371.721 79.2468L372.399 78.512ZM367.663 56.984H398.255V54.984H367.663V56.984ZM399.254 55.9406C399.073 51.7791 397.57 48.2527 394.738 45.4209L393.324 46.8351C395.783 49.294 397.096 52.3383 397.256 56.0274L399.254 55.9406ZM394.75 45.4326C391.946 42.5358 387.939 41.16 382.895 41.16V43.16C387.579 43.16 390.996 44.4295 393.312 46.8234L394.75 45.4326ZM382.895 41.16C378.226 41.16 374.37 42.6514 371.425 45.6879L372.861 47.0801C375.378 44.4846 378.689 43.16 382.895 43.16V41.16ZM371.436 45.6769C368.544 48.5688 366.939 51.9917 366.665 55.9144L368.661 56.0536C368.899 52.6376 370.281 49.6605 372.85 47.0911L371.436 45.6769ZM399.617 73.1934L412.161 77.1614L412.765 75.2546L400.221 71.2866L399.617 73.1934ZM411.509 75.9089C409.781 81.4204 406.537 85.9852 401.747 89.6193L402.955 91.2127C408.064 87.3374 411.561 82.4302 413.417 76.5071L411.509 75.9089ZM401.749 89.6177C397.088 93.1341 391.293 94.92 384.303 94.92V96.92C391.649 96.92 397.887 95.0366 402.953 91.2143L401.749 89.6177ZM384.303 94.92C375.683 94.92 368.382 91.988 362.344 86.1151L360.95 87.5489C367.37 93.7934 375.174 96.92 384.303 96.92V94.92ZM362.349 86.12C356.429 80.2823 353.431 72.4501 353.431 62.512H351.431C351.431 72.8832 354.577 81.2644 360.945 87.544L362.349 86.12ZM353.431 62.512C353.431 53.1823 356.338 45.5922 362.108 39.6571L360.674 38.2629C354.498 44.6158 351.431 52.727 351.431 62.512H353.431ZM362.103 39.6621C367.985 33.6974 374.858 30.744 382.767 30.744V28.744C374.292 28.744 366.914 31.9346 360.679 38.2579L362.103 39.6621ZM382.767 30.744C392.104 30.744 399.279 33.6107 404.429 39.2503L405.905 37.9017C400.303 31.7653 392.545 28.744 382.767 28.744V30.744ZM404.433 39.2556C409.598 44.83 412.231 52.4152 412.231 62.128H414.231C414.231 52.0434 411.488 43.9273 405.901 37.8964L404.433 39.2556ZM412.231 62.128C412.231 63.4389 412.199 64.4645 412.138 65.2152C412.108 65.5909 412.071 65.8828 412.031 66.0993C412.012 66.207 411.993 66.2877 411.976 66.3455C411.959 66.4061 411.949 66.4249 411.953 66.4168L413.741 67.3112C413.869 67.0555 413.945 66.7498 413.999 66.4607C414.055 66.1545 414.098 65.7905 414.132 65.3768C414.199 64.5488 414.231 63.4624 414.231 62.128H412.231ZM412.847 65.864H367.279V67.864H412.847V65.864ZM366.28 66.9003C366.459 71.8406 368.268 75.9758 371.711 79.238L373.087 77.786C370.045 74.9042 368.44 71.2741 368.278 66.8277L366.28 66.9003ZM371.721 79.2468C375.237 82.4926 379.448 84.12 384.303 84.12V82.12C379.942 82.12 376.217 80.6754 373.077 77.7772L371.721 79.2468ZM384.303 84.12C388.464 84.12 391.985 83.1782 394.795 81.2205C397.609 79.2597 399.621 76.3422 400.869 72.5529L398.969 71.9271C397.828 75.3912 396.042 77.9136 393.651 79.5795C391.256 81.2484 388.163 82.12 384.303 82.12V84.12ZM460.06 31.28H461.06V30.4602L460.256 30.2994L460.06 31.28ZM460.06 46.384L459.912 47.3729L461.06 47.5452V46.384H460.06ZM438.428 94V95H439.428V94H438.428ZM423.58 94H422.58V95H423.58V94ZM423.58 31.664V30.664H422.58V31.664H423.58ZM438.044 31.664H439.044V30.664H438.044V31.664ZM438.044 41.648H437.044L438.961 42.0476L438.044 41.648ZM445.084 33.84L445.585 34.7054L445.593 34.7005L445.602 34.6955L445.084 33.84ZM459.06 31.28V46.384H461.06V31.28H459.06ZM460.208 45.3951C458.458 45.1326 456.787 45 455.196 45V47C456.677 47 458.248 47.1234 459.912 47.3729L460.208 45.3951ZM455.196 45C449.429 45 444.926 46.5779 441.883 49.9005C438.854 53.2065 437.428 58.0692 437.428 64.304H439.428C439.428 58.3362 440.797 54.0468 443.357 51.2515C445.903 48.4728 449.784 47 455.196 47V45ZM437.428 64.304V94H439.428V64.304H437.428ZM438.428 93H423.58V95H438.428V93ZM424.58 94V31.664H422.58V94H424.58ZM423.58 32.664H438.044V30.664H423.58V32.664ZM437.044 31.664V41.648H439.044V31.664H437.044ZM438.961 42.0476C440.323 38.9219 442.521 36.4795 445.585 34.7054L444.583 32.9746C441.162 34.9552 438.666 37.7181 437.127 41.2484L438.961 42.0476ZM445.602 34.6955C448.676 32.835 452.163 31.896 456.092 31.896V29.896C451.829 29.896 447.978 30.9197 444.566 32.9845L445.602 34.6955ZM456.092 31.896C457.394 31.896 458.651 32.0181 459.864 32.2606L460.256 30.2994C458.909 30.0299 457.52 29.896 456.092 29.896V31.896ZM76.847 132.712V133.712H77.847V132.712H76.847ZM47.279 132.712V131.712H46.279V132.712H47.279ZM47.279 209V210H48.279V209H47.279ZM31.919 209H30.919V210H31.919V209ZM31.919 132.712H32.919V131.712H31.919V132.712ZM2.479 132.712H1.479V133.712H2.479V132.712ZM2.479 118.248V117.248H1.479V118.248H2.479ZM76.847 118.248H77.847V117.248H76.847V118.248ZM76.847 131.712H47.279V133.712H76.847V131.712ZM46.279 132.712V209H48.279V132.712H46.279ZM47.279 208H31.919V210H47.279V208ZM32.919 209V132.712H30.919V209H32.919ZM31.919 131.712H2.479V133.712H31.919V131.712ZM3.479 132.712V118.248H1.479V132.712H3.479ZM2.479 119.248H76.847V117.248H2.479V119.248ZM75.847 118.248V132.712H77.847V118.248H75.847ZM99.423 172.392L98.4239 172.35L98.423 172.371V172.392H99.423ZM99.423 209V210H100.423V209H99.423ZM84.575 209H83.575V210H84.575V209ZM84.575 116.328V115.328H83.575V116.328H84.575ZM99.423 116.328H100.423V115.328H99.423V116.328ZM99.423 152.68H98.423V155.616L100.215 153.29L99.423 152.68ZM139.999 209V210H140.999V209H139.999ZM125.151 209H124.151V210H125.151V209ZM122.079 162.152L121.298 162.777L121.303 162.783L121.309 162.79L122.079 162.152ZM103.007 162.28L102.253 161.623L102.247 161.63L102.241 161.637L103.007 162.28ZM98.423 172.392V209H100.423V172.392H98.423ZM99.423 208H84.575V210H99.423V208ZM85.575 209V116.328H83.575V209H85.575ZM84.575 117.328H99.423V115.328H84.575V117.328ZM98.423 116.328V152.68H100.423V116.328H98.423ZM100.215 153.29C103.999 148.38 109.607 145.872 117.215 145.872V143.872C109.122 143.872 102.869 146.57 98.6309 152.07L100.215 153.29ZM117.215 145.872C124.329 145.872 129.655 148.095 133.35 152.432L134.872 151.136C130.717 146.257 124.779 143.872 117.215 143.872V145.872ZM133.35 152.432C137.092 156.825 138.999 162.511 138.999 169.576H140.999C140.999 162.134 138.981 155.959 134.872 151.136L133.35 152.432ZM138.999 169.576V209H140.999V169.576H138.999ZM139.999 208H125.151V210H139.999V208ZM126.151 209V172.136H124.151V209H126.151ZM126.151 172.136C126.151 167.793 125.086 164.217 122.849 161.514L121.309 162.79C123.168 165.037 124.151 168.116 124.151 172.136H126.151ZM122.86 161.527C120.561 158.653 116.978 157.312 112.351 157.312V159.312C116.599 159.312 119.501 160.531 121.298 162.777L122.86 161.527ZM112.351 157.312C108.175 157.312 104.771 158.732 102.253 161.623L103.761 162.937C105.851 160.537 108.676 159.312 112.351 159.312V157.312ZM102.241 161.637C99.855 164.482 98.6019 168.077 98.4239 172.35L100.422 172.434C100.585 168.515 101.722 165.369 103.773 162.923L102.241 161.637ZM190.715 146.28H191.715V145.46L190.911 145.299L190.715 146.28ZM190.715 161.384L190.567 162.373L191.715 162.545V161.384H190.715ZM169.083 209V210H170.083V209H169.083ZM154.235 209H153.235V210H154.235V209ZM154.235 146.664V145.664H153.235V146.664H154.235ZM168.699 146.664H169.699V145.664H168.699V146.664ZM168.699 156.648H167.699L169.616 157.048L168.699 156.648ZM175.739 148.84L176.24 149.705L176.248 149.701L176.257 149.695L175.739 148.84ZM189.715 146.28V161.384H191.715V146.28H189.715ZM190.863 160.395C189.113 160.133 187.442 160 185.851 160V162C187.332 162 188.903 162.123 190.567 162.373L190.863 160.395ZM185.851 160C180.084 160 175.581 161.578 172.538 164.901C169.509 168.207 168.083 173.069 168.083 179.304H170.083C170.083 173.336 171.452 169.047 174.012 166.251C176.558 163.473 180.439 162 185.851 162V160ZM168.083 179.304V209H170.083V179.304H168.083ZM169.083 208H154.235V210H169.083V208ZM155.235 209V146.664H153.235V209H155.235ZM154.235 147.664H168.699V145.664H154.235V147.664ZM167.699 146.664V156.648H169.699V146.664H167.699ZM169.616 157.048C170.978 153.922 173.176 151.479 176.24 149.705L175.238 147.975C171.817 149.955 169.321 152.718 167.782 156.248L169.616 157.048ZM176.257 149.695C179.331 147.835 182.818 146.896 186.747 146.896V144.896C182.484 144.896 178.633 145.92 175.221 147.984L176.257 149.695ZM186.747 146.896C188.05 146.896 189.306 147.018 190.519 147.261L190.911 145.299C189.564 145.03 188.175 144.896 186.747 144.896V146.896ZM209.013 170.984L208.015 170.914L207.941 171.984H209.013V170.984ZM239.605 170.984V171.984H240.649L240.604 170.941L239.605 170.984ZM235.381 161.128L234.662 161.823L234.668 161.829L234.674 161.835L235.381 161.128ZM213.493 161.384L214.2 162.091L214.206 162.086L214.211 162.08L213.493 161.384ZM241.269 187.24L241.571 186.287L240.628 185.989L240.319 186.927L241.269 187.24ZM253.813 191.208L254.767 191.507L255.066 190.555L254.115 190.255L253.813 191.208ZM243.701 205.416L244.303 206.214L244.305 206.213L243.701 205.416ZM202.997 201.832L202.295 202.544L202.3 202.549L202.997 201.832ZM202.741 153.96L202.029 153.258L202.024 153.263L202.741 153.96ZM246.517 153.576L245.778 154.25L245.783 154.256L246.517 153.576ZM254.197 181.864V182.864H254.815L255.091 182.311L254.197 181.864ZM208.629 181.864V180.864H207.592L207.63 181.9L208.629 181.864ZM213.749 193.512L213.061 194.238L213.071 194.247L213.749 193.512ZM209.013 171.984H239.605V169.984H209.013V171.984ZM240.604 170.941C240.423 166.779 238.92 163.253 236.088 160.421L234.674 161.835C237.133 164.294 238.446 167.338 238.606 171.027L240.604 170.941ZM236.1 160.433C233.296 157.536 229.289 156.16 224.245 156.16V158.16C228.929 158.16 232.346 159.429 234.662 161.823L236.1 160.433ZM224.245 156.16C219.576 156.16 215.72 157.651 212.775 160.688L214.211 162.08C216.728 159.485 220.039 158.16 224.245 158.16V156.16ZM212.786 160.677C209.894 163.569 208.289 166.992 208.015 170.914L210.011 171.054C210.249 167.638 211.631 164.661 214.2 162.091L212.786 160.677ZM240.967 188.193L253.511 192.161L254.115 190.255L241.571 186.287L240.967 188.193ZM252.859 190.909C251.131 196.42 247.887 200.985 243.097 204.619L244.305 206.213C249.414 202.337 252.911 197.43 254.767 191.507L252.859 190.909ZM243.099 204.618C238.437 208.134 232.643 209.92 225.653 209.92V211.92C232.999 211.92 239.237 210.037 244.303 206.214L243.099 204.618ZM225.653 209.92C217.033 209.92 209.732 206.988 203.694 201.115L202.3 202.549C208.72 208.793 216.524 211.92 225.653 211.92V209.92ZM203.699 201.12C197.779 195.282 194.781 187.45 194.781 177.512H192.781C192.781 187.883 195.927 196.264 202.295 202.544L203.699 201.12ZM194.781 177.512C194.781 168.182 197.688 160.592 203.458 154.657L202.024 153.263C195.848 159.616 192.781 167.727 192.781 177.512H194.781ZM203.453 154.662C209.335 148.697 216.208 145.744 224.117 145.744V143.744C215.642 143.744 208.264 146.935 202.029 153.258L203.453 154.662ZM224.117 145.744C233.454 145.744 240.629 148.611 245.779 154.25L247.255 152.902C241.653 146.765 233.895 143.744 224.117 143.744V145.744ZM245.783 154.256C250.948 159.83 253.581 167.415 253.581 177.128H255.581C255.581 167.043 252.838 158.927 247.251 152.896L245.783 154.256ZM253.581 177.128C253.581 178.439 253.549 179.465 253.488 180.215C253.458 180.591 253.421 180.883 253.381 181.099C253.362 181.207 253.343 181.288 253.326 181.346C253.309 181.406 253.299 181.425 253.303 181.417L255.091 182.311C255.219 182.055 255.295 181.75 255.349 181.461C255.405 181.155 255.448 180.79 255.482 180.377C255.549 179.549 255.581 178.462 255.581 177.128H253.581ZM254.197 180.864H208.629V182.864H254.197V180.864ZM207.63 181.9C207.809 186.841 209.618 190.976 213.061 194.238L214.437 192.786C211.395 189.904 209.79 186.274 209.628 181.828L207.63 181.9ZM213.071 194.247C216.587 197.493 220.798 199.12 225.653 199.12V197.12C221.292 197.12 217.567 195.675 214.427 192.777L213.071 194.247ZM225.653 199.12C229.814 199.12 233.335 198.178 236.145 196.22C238.959 194.26 240.971 191.342 242.219 187.553L240.319 186.927C239.178 190.391 237.392 192.914 235.001 194.58C232.606 196.248 229.513 197.12 225.653 197.12V199.12ZM266.21 179.432L266.889 180.166L266.89 180.165L266.21 179.432ZM279.906 173.288L280.056 174.277L280.056 174.277L279.906 173.288ZM295.906 170.856L295.768 169.865L295.756 169.867L295.906 170.856ZM297.57 159.592L296.896 160.33L296.905 160.339L296.914 160.347L297.57 159.592ZM279.778 160.104L280.456 160.839L280.464 160.832L280.471 160.825L279.778 160.104ZM275.938 168.168L275.717 169.143L276.818 169.392L276.933 168.27L275.938 168.168ZM262.37 165.096L261.376 164.991L261.282 165.875L262.149 166.071L262.37 165.096ZM270.434 150.76L271.069 151.533L271.077 151.526L270.434 150.76ZM308.578 151.272L307.864 151.972L307.871 151.979L308.578 151.272ZM315.874 209V210H317.094L316.855 208.804L315.874 209ZM302.05 209L301.101 209.316L301.329 210H302.05V209ZM301.41 201.064H302.41V197.57L300.561 200.535L301.41 201.064ZM266.85 205.416L266.151 206.131L266.159 206.139L266.167 206.147L266.85 205.416ZM296.162 195.56L296.822 196.311L296.824 196.31L296.162 195.56ZM300.514 180.328H301.514V179.167L300.366 179.339L300.514 180.328ZM284.258 182.76L284.11 181.771L284.101 181.772L284.091 181.774L284.258 182.76ZM278.37 196.968L277.663 197.675L277.672 197.685L277.682 197.694L278.37 196.968ZM262.09 192.104C262.09 187.05 263.709 183.107 266.889 180.166L265.531 178.698C261.884 182.071 260.09 186.577 260.09 192.104H262.09ZM266.89 180.165C270.215 177.084 274.583 175.106 280.056 174.277L279.756 172.299C273.965 173.177 269.203 175.295 265.53 178.699L266.89 180.165ZM280.056 174.277L296.056 171.845L295.756 169.867L279.756 172.299L280.056 174.277ZM296.044 171.846C297.7 171.616 299.084 171.081 300.059 170.133C301.058 169.162 301.514 167.869 301.514 166.376H299.514C299.514 167.443 299.202 168.177 298.665 168.699C298.104 169.244 297.184 169.669 295.768 169.866L296.044 171.846ZM301.514 166.376C301.514 163.298 300.427 160.751 298.226 158.837L296.914 160.347C298.638 161.846 299.514 163.822 299.514 166.376H301.514ZM298.244 158.854C296.026 156.828 292.796 155.904 288.738 155.904V157.904C292.531 157.904 295.188 158.772 296.896 160.33L298.244 158.854ZM288.738 155.904C284.785 155.904 281.529 157.033 279.085 159.383L280.471 160.825C282.464 158.908 285.182 157.904 288.738 157.904V155.904ZM279.1 159.369C276.682 161.601 275.307 164.524 274.943 168.066L276.933 168.27C277.252 165.156 278.436 162.703 280.456 160.839L279.1 159.369ZM276.159 167.193L262.591 164.121L262.149 166.071L275.717 169.143L276.159 167.193ZM263.364 165.201C263.931 159.856 266.472 155.308 271.069 151.533L269.799 149.987C264.838 154.062 262.003 159.072 261.376 164.991L263.364 165.201ZM271.077 151.526C275.645 147.692 281.463 145.744 288.61 145.744V143.744C281.08 143.744 274.781 145.806 269.791 149.994L271.077 151.526ZM288.61 145.744C297.516 145.744 303.86 147.888 307.864 151.972L309.292 150.572C304.763 145.952 297.795 143.744 288.61 143.744V145.744ZM307.871 151.979C312.014 156.122 314.106 161.447 314.106 168.04H316.106C316.106 160.98 313.846 155.126 309.285 150.565L307.871 151.979ZM314.106 168.04V199.016H316.106V168.04H314.106ZM314.106 199.016C314.106 203.145 314.363 206.546 314.893 209.196L316.855 208.804C316.361 206.334 316.106 203.079 316.106 199.016H314.106ZM315.874 208H302.05V210H315.874V208ZM302.999 208.684C302.825 208.162 302.672 207.279 302.567 205.976C302.463 204.689 302.41 203.055 302.41 201.064H300.41C300.41 203.084 300.464 204.777 300.573 206.136C300.681 207.478 300.849 208.558 301.101 209.316L302.999 208.684ZM300.561 200.535C296.673 206.772 290.62 209.92 282.21 209.92V211.92C291.208 211.92 297.955 208.497 302.259 201.593L300.561 200.535ZM282.21 209.92C276.102 209.92 271.241 208.152 267.533 204.685L266.167 206.147C270.31 210.019 275.689 211.92 282.21 211.92V209.92ZM267.549 204.701C263.891 201.124 262.09 196.941 262.09 192.104H260.09C260.09 197.507 262.129 202.198 266.151 206.131L267.549 204.701ZM285.026 200.272C289.819 200.272 293.784 198.981 296.822 196.311L295.502 194.809C292.908 197.089 289.449 198.272 285.026 198.272V200.272ZM296.824 196.31C300.026 193.484 301.514 189.009 301.514 183.144H299.514C299.514 188.713 298.101 192.516 295.5 194.81L296.824 196.31ZM301.514 183.144V180.328H299.514V183.144H301.514ZM300.366 179.339L284.11 181.771L284.406 183.749L300.662 181.317L300.366 179.339ZM284.091 181.774C281.195 182.264 278.89 183.265 277.306 184.874C275.701 186.504 274.938 188.651 274.938 191.208H276.938C276.938 189.071 277.562 187.464 278.731 186.278C279.919 185.071 281.774 184.195 284.425 183.746L284.091 181.774ZM274.938 191.208C274.938 193.702 275.861 195.873 277.663 197.675L279.077 196.261C277.636 194.82 276.938 193.152 276.938 191.208H274.938ZM277.682 197.694C279.534 199.449 282.024 200.272 285.026 200.272V198.272C282.396 198.272 280.448 197.559 279.058 196.242L277.682 197.694ZM343.682 192.104L342.915 192.746L342.923 192.755L343.682 192.104ZM367.746 191.976L366.979 191.334L366.979 191.334L367.746 191.976ZM367.874 163.432L367.113 164.081L367.113 164.081L367.874 163.432ZM343.81 163.56L344.552 164.23L344.56 164.221L343.81 163.56ZM386.69 116.328H387.69V115.328H386.69V116.328ZM387.33 209V210H388.463L388.322 208.876L387.33 209ZM373.122 209L372.138 209.176L372.285 210H373.122V209ZM372.482 200.936H373.482L371.604 200.457L372.482 200.936ZM365.314 207.848L364.83 206.973L364.83 206.973L365.314 207.848ZM332.546 201.192L333.293 200.527L333.293 200.527L332.546 201.192ZM332.546 154.472L331.8 153.806L331.795 153.812L332.546 154.472ZM365.826 147.688L365.311 148.546L365.322 148.552L365.826 147.688ZM372.226 153.96L371.332 154.407L373.226 153.96H372.226ZM372.226 116.328V115.328H371.226V116.328H372.226ZM338.074 177.64C338.074 183.788 339.658 188.855 342.915 192.746L344.449 191.462C341.562 188.014 340.074 183.439 340.074 177.64H338.074ZM342.923 192.755C346.199 196.577 350.537 198.48 355.842 198.48V196.48C351.077 196.48 347.309 194.799 344.441 191.453L342.923 192.755ZM355.842 198.48C360.996 198.48 365.247 196.518 368.513 192.618L366.979 191.334C364.101 194.772 360.416 196.48 355.842 196.48V198.48ZM368.513 192.618C371.77 188.727 373.354 183.66 373.354 177.512H371.354C371.354 183.311 369.866 187.886 366.979 191.334L368.513 192.618ZM373.354 177.512C373.354 171.454 371.815 166.508 368.635 162.783L367.113 164.081C369.906 167.353 371.354 171.794 371.354 177.512H373.354ZM368.635 162.783C365.442 159.043 361.187 157.184 355.97 157.184V159.184C360.652 159.184 364.333 160.824 367.113 164.081L368.635 162.783ZM355.97 157.184C350.745 157.184 346.415 159.091 343.06 162.899L344.56 164.221C347.52 160.861 351.296 159.184 355.97 159.184V157.184ZM343.068 162.89C339.706 166.615 338.074 171.569 338.074 177.64H340.074C340.074 171.935 341.599 167.502 344.552 164.23L343.068 162.89ZM385.69 116.328V197.608H387.69V116.328H385.69ZM385.69 197.608C385.69 201.822 385.905 205.662 386.338 209.124L388.322 208.876C387.902 205.511 387.69 201.756 387.69 197.608H385.69ZM387.33 208H373.122V210H387.33V208ZM374.106 208.824C373.692 206.504 373.482 203.877 373.482 200.936H371.482C371.482 203.969 371.698 206.717 372.138 209.176L374.106 208.824ZM371.604 200.457C370.173 203.082 367.933 205.258 364.83 206.973L365.798 208.723C369.18 206.854 371.719 204.422 373.36 201.415L371.604 200.457ZM364.83 206.973C361.754 208.673 358.212 209.536 354.178 209.536V211.536C358.506 211.536 362.389 210.607 365.798 208.723L364.83 206.973ZM354.178 209.536C345.568 209.536 338.636 206.528 333.293 200.527L331.799 201.857C337.549 208.314 345.039 211.536 354.178 211.536V209.536ZM333.293 200.527C327.931 194.506 325.226 186.902 325.226 177.64H323.226C323.226 187.322 326.067 195.42 331.799 201.857L333.293 200.527ZM325.226 177.64C325.226 168.73 327.925 161.248 333.297 155.132L331.795 153.812C326.073 160.326 323.226 168.289 323.226 177.64H325.226ZM333.292 155.138C338.731 149.04 345.582 146 353.922 146V144C345.024 144 337.625 147.275 331.8 153.806L333.292 155.138ZM353.922 146C358.762 146 362.532 146.878 365.311 148.545L366.34 146.831C363.146 144.914 358.98 144 353.922 144V146ZM365.322 148.552C368.281 150.278 370.248 152.241 371.332 154.407L373.12 153.513C371.814 150.901 369.515 148.682 366.33 146.824L365.322 148.552ZM373.226 153.96V116.328H371.226V153.96H373.226ZM372.226 117.328H386.69V115.328H372.226V117.328ZM396.746 192.104L396.479 191.14L395.678 191.362L395.75 192.191L396.746 192.104ZM409.674 188.52L410.67 188.435L410.567 187.235L409.407 187.556L409.674 188.52ZM413.386 196.072L412.708 196.807L412.708 196.807L413.386 196.072ZM429.13 197.096L428.505 196.315L428.495 196.323L428.486 196.331L429.13 197.096ZM424.394 185.064L424.177 186.04L424.188 186.043L424.394 185.064ZM415.178 183.016L415.395 182.04L415.395 182.04L415.178 183.016ZM402.762 176.36L403.507 175.693L403.507 175.693L402.762 176.36ZM405.066 150.76L405.729 151.509L405.737 151.502L405.066 150.76ZM439.498 151.272L438.743 151.928L438.759 151.946L438.775 151.962L439.498 151.272ZM443.594 156.776L444.48 156.312L444.48 156.312L443.594 156.776ZM445.386 162.152L445.661 163.114L446.499 162.874L446.376 162.011L445.386 162.152ZM432.842 165.736L431.852 165.877L432.014 167.013L433.117 166.698L432.842 165.736ZM429.514 159.336L428.776 160.01L428.791 160.027L428.807 160.043L429.514 159.336ZM414.922 158.568L415.547 159.349L415.558 159.34L415.57 159.33L414.922 158.568ZM418.634 170.088L418.434 171.068L418.435 171.068L418.634 170.088ZM428.106 172.008L428.321 171.031L428.313 171.03L428.305 171.028L428.106 172.008ZM441.418 178.92L440.683 179.598L440.683 179.598L441.418 178.92ZM439.754 204.904L440.454 205.619L440.454 205.618L439.754 204.904ZM410.954 209L410.595 209.933L410.603 209.936L410.954 209ZM403.018 204.136L402.281 204.812L402.296 204.828L402.311 204.843L403.018 204.136ZM398.538 198.12L397.644 198.567L397.655 198.59L397.667 198.612L398.538 198.12ZM397.013 193.068L409.941 189.484L409.407 187.556L396.479 191.14L397.013 193.068ZM408.678 188.605C408.955 191.843 410.307 194.591 412.708 196.807L414.064 195.337C412.027 193.457 410.905 191.171 410.67 188.435L408.678 188.605ZM412.708 196.807C415.153 199.064 418.404 200.144 422.346 200.144V198.144C418.779 198.144 416.056 197.176 414.064 195.337L412.708 196.807ZM422.346 200.144C425.396 200.144 427.916 199.426 429.774 197.861L428.486 196.331C427.102 197.497 425.098 198.144 422.346 198.144V200.144ZM429.755 197.877C431.68 196.336 432.69 194.351 432.69 191.976H430.69C430.69 193.697 429.993 195.125 428.505 196.315L429.755 197.877ZM432.69 191.976C432.69 189.931 431.984 188.189 430.554 186.834C429.154 185.508 427.131 184.618 424.6 184.085L424.188 186.043C426.521 186.534 428.146 187.308 429.178 188.286C430.18 189.235 430.69 190.437 430.69 191.976H432.69ZM424.611 184.088L415.395 182.04L414.961 183.992L424.177 186.04L424.611 184.088ZM415.395 182.04C410.169 180.878 406.236 178.743 403.507 175.693L402.017 177.027C405.091 180.462 409.435 182.764 414.961 183.992L415.395 182.04ZM403.507 175.693C400.774 172.638 399.41 169.037 399.41 164.84H397.41C397.41 169.518 398.948 173.597 402.017 177.027L403.507 175.693ZM399.41 164.84C399.41 159.691 401.485 155.263 405.729 151.509L404.403 150.011C399.772 154.108 397.41 159.066 397.41 164.84H399.41ZM405.737 151.502C409.976 147.67 415.151 145.744 421.322 145.744V143.744C414.693 143.744 409.03 145.829 404.395 150.018L405.737 151.502ZM421.322 145.744C425.322 145.744 428.825 146.327 431.848 147.471L432.556 145.601C429.264 144.355 425.514 143.744 421.322 143.744V145.744ZM431.848 147.471C434.896 148.624 437.173 150.122 438.743 151.928L440.253 150.616C438.41 148.497 435.823 146.837 432.556 145.601L431.848 147.471ZM438.775 151.962C440.519 153.79 441.823 155.55 442.708 157.24L444.48 156.312C443.488 154.418 442.061 152.508 440.221 150.582L438.775 151.962ZM442.708 157.24C443.6 158.943 444.158 160.627 444.396 162.293L446.376 162.011C446.102 160.093 445.465 158.193 444.48 156.312L442.708 157.24ZM445.111 161.19L432.567 164.774L433.117 166.698L445.661 163.114L445.111 161.19ZM433.832 165.595C433.457 162.969 432.235 160.643 430.221 158.629L428.807 160.043C430.547 161.784 431.544 163.724 431.852 165.877L433.832 165.595ZM430.252 158.662C428.207 156.422 425.162 155.392 421.322 155.392V157.392C424.821 157.392 427.237 158.325 428.776 160.01L430.252 158.662ZM421.322 155.392C418.561 155.392 416.187 156.18 414.274 157.806L415.57 159.33C417.07 158.055 418.963 157.392 421.322 157.392V155.392ZM414.297 157.787C412.384 159.318 411.362 161.256 411.362 163.56H413.362C413.362 161.938 414.047 160.549 415.547 159.349L414.297 157.787ZM411.362 163.56C411.362 165.523 411.956 167.205 413.209 168.509C414.442 169.792 416.224 170.617 418.434 171.068L418.834 169.108C416.863 168.706 415.509 168.016 414.651 167.123C413.813 166.251 413.362 165.095 413.362 163.56H411.362ZM418.435 171.068L427.907 172.988L428.305 171.028L418.833 169.108L418.435 171.068ZM427.891 172.985C433.555 174.234 437.787 176.461 440.683 179.598L442.153 178.242C438.905 174.723 434.262 172.342 428.321 171.031L427.891 172.985ZM440.683 179.598C443.578 182.734 445.026 186.5 445.026 190.952H447.026C447.026 186.017 445.402 181.762 442.153 178.242L440.683 179.598ZM445.026 190.952C445.026 195.854 443.07 200.256 439.054 204.19L440.454 205.618C444.801 201.36 447.026 196.461 447.026 190.952H445.026ZM439.054 204.189C435.196 207.968 429.717 209.92 422.474 209.92V211.92C430.079 211.92 436.12 209.862 440.454 205.619L439.054 204.189ZM422.474 209.92C418.307 209.92 414.589 209.295 411.305 208.064L410.603 209.936C414.146 211.265 418.107 211.92 422.474 211.92V209.92ZM411.313 208.067C408.08 206.823 405.565 205.269 403.725 203.429L402.311 204.843C404.396 206.929 407.172 208.617 410.595 209.933L411.313 208.067ZM403.755 203.46C401.918 201.456 400.473 199.511 399.409 197.628L397.667 198.612C398.822 200.654 400.364 202.72 402.281 204.812L403.755 203.46ZM399.432 197.673C398.456 195.719 397.9 193.836 397.742 192.017L395.75 192.191C395.933 194.297 396.572 196.425 397.644 198.567L399.432 197.673ZM458.83 206.824L458.108 207.516L458.123 207.531L458.138 207.546L458.83 206.824ZM458.83 191.976L458.123 191.269L458.115 191.276L458.108 191.284L458.83 191.976ZM473.678 191.976L474.385 191.269L474.385 191.269L473.678 191.976ZM473.678 206.824L474.37 207.546L474.378 207.539L474.385 207.531L473.678 206.824ZM459.552 206.132C457.772 204.275 456.886 202.05 456.886 199.4H454.886C454.886 202.553 455.962 205.277 458.108 207.516L459.552 206.132ZM456.886 199.4C456.886 196.75 457.772 194.525 459.552 192.668L458.108 191.284C455.962 193.523 454.886 196.247 454.886 199.4H456.886ZM459.537 192.683C461.397 190.823 463.617 189.904 466.254 189.904V187.904C463.088 187.904 460.359 189.033 458.123 191.269L459.537 192.683ZM466.254 189.904C468.891 189.904 471.111 190.823 472.971 192.683L474.385 191.269C472.149 189.033 469.42 187.904 466.254 187.904V189.904ZM472.971 192.683C474.831 194.543 475.75 196.763 475.75 199.4H477.75C477.75 196.234 476.621 193.505 474.385 191.269L472.971 192.683ZM475.75 199.4C475.75 202.037 474.831 204.257 472.971 206.117L474.385 207.531C476.621 205.295 477.75 202.566 477.75 199.4H475.75ZM472.986 206.102C471.129 207.882 468.904 208.768 466.254 208.768V210.768C469.407 210.768 472.131 209.692 474.37 207.546L472.986 206.102ZM466.254 208.768C463.604 208.768 461.379 207.882 459.522 206.102L458.138 207.546C460.377 209.692 463.101 210.768 466.254 210.768V208.768Z" fill="white"/>
<defs>
<linearGradient id="paint0_linear_2_15" x1="574" y1="209" x2="-121.11" y2="313.456" gradientUnits="userSpaceOnUse">
<stop stop-color="#3754FB"/>
<stop offset="1" stop-color="#FC01FF"/>
</linearGradient>
</defs>
</svg>
