<svg width="464" height="211" viewBox="0 0 464 211" fill="none" xmlns="http://www.w3.org/2000/svg">
<path d="M46.685 95.92C33.9703 95.92 23.133 91.6107 14.173 82.992C5.29833 74.3733 0.861001 62.9387 0.861001 48.688C0.861001 34.5227 5.38367 23.088 14.429 14.384C23.4743 5.68 34.1837 1.328 46.557 1.328C57.4797 1.328 66.4397 4.10133 73.437 9.64799C80.5197 15.1947 85.1703 22.2347 87.389 30.768L72.925 35.632C71.4743 29.744 68.5303 24.9653 64.093 21.296C59.6557 17.6267 53.8103 15.792 46.557 15.792C38.4503 15.792 31.4103 18.6933 25.437 24.496C19.549 30.2133 16.605 38.2773 16.605 48.688C16.605 58.8427 19.549 66.8213 25.437 72.624C31.325 78.3413 38.4077 81.2 46.685 81.2C53.7677 81.2 59.613 79.28 64.221 75.44C68.829 71.6 71.9863 66.864 73.693 61.232L87.773 65.84C85.5543 74.288 80.861 81.4133 73.693 87.216C66.6103 93.0187 57.6077 95.92 46.685 95.92ZM92.28 77.104C92.28 71.8133 93.9867 67.5893 97.4 64.432C100.899 61.1893 105.464 59.1413 111.096 58.288L127.096 55.856C130.168 55.4293 131.704 53.936 131.704 51.376C131.704 48.56 130.723 46.2987 128.76 44.592C126.797 42.8 123.853 41.904 119.928 41.904C116.173 41.904 113.187 42.9707 110.968 45.104C108.749 47.152 107.469 49.84 107.128 53.168L93.56 50.096C94.1573 44.464 96.8453 39.6853 101.624 35.76C106.403 31.7493 112.461 29.744 119.8 29.744C128.845 29.744 135.501 31.92 139.768 36.272C144.12 40.624 146.296 46.2133 146.296 53.04V84.016C146.296 88.112 146.552 91.44 147.064 94H133.24C132.813 92.72 132.6 90.0747 132.6 86.064C128.504 92.6347 122.104 95.92 113.4 95.92C107.085 95.92 101.965 94.0853 98.04 90.416C94.2 86.6613 92.28 82.224 92.28 77.104ZM116.216 84.272C120.824 84.272 124.536 83.0347 127.352 80.56C130.253 78 131.704 73.8613 131.704 68.144V65.328L115.448 67.76C109.901 68.6987 107.128 71.5147 107.128 76.208C107.128 78.4267 107.939 80.3467 109.56 81.968C111.181 83.504 113.4 84.272 116.216 84.272ZM175.253 58.032V94H160.405V31.664H174.869V39.984C176.832 36.5707 179.434 34.0533 182.677 32.432C186.005 30.7253 189.546 29.872 193.301 29.872C200.64 29.872 206.229 32.176 210.069 36.784C213.909 41.392 215.829 47.3227 215.829 54.576V94H200.981V57.136C200.981 52.9547 199.957 49.6267 197.909 47.152C195.861 44.592 192.618 43.312 188.181 43.312C184.085 43.312 180.885 44.72 178.581 47.536C176.362 50.2667 175.253 53.7653 175.253 58.032ZM244.785 94H230.065V31.664H244.785V94ZM230.577 16.56C228.7 14.6827 227.761 12.4213 227.761 9.77599C227.761 7.13066 228.7 4.86933 230.577 2.992C232.454 1.02933 234.716 0.0479965 237.361 0.0479965C240.092 0.0479965 242.396 0.986664 244.273 2.864C246.15 4.74133 247.089 7.04533 247.089 9.77599C247.089 12.4213 246.15 14.6827 244.273 16.56C242.396 18.4373 240.092 19.376 237.361 19.376C234.716 19.376 232.454 18.4373 230.577 16.56ZM254.596 77.104L267.524 73.52C267.78 76.5067 269.017 79.024 271.236 81.072C273.455 83.12 276.441 84.144 280.196 84.144C283.097 84.144 285.359 83.4613 286.98 82.096C288.687 80.7307 289.54 79.024 289.54 76.976C289.54 73.392 287.108 71.088 282.244 70.064L273.028 68.016C267.652 66.8213 263.513 64.6027 260.612 61.36C257.711 58.1173 256.26 54.2773 256.26 49.84C256.26 44.3787 258.479 39.6853 262.916 35.76C267.353 31.7493 272.772 29.744 279.172 29.744C283.268 29.744 286.895 30.3413 290.052 31.536C293.209 32.7307 295.641 34.3093 297.348 36.272C299.14 38.1493 300.505 39.984 301.444 41.776C302.383 43.568 302.98 45.36 303.236 47.152L290.692 50.736C290.351 48.3467 289.241 46.2133 287.364 44.336C285.572 42.3733 282.841 41.392 279.172 41.392C276.612 41.392 274.479 42.1173 272.772 43.568C271.065 44.9333 270.212 46.5973 270.212 48.56C270.212 52.0587 272.303 54.2347 276.484 55.088L285.956 57.008C291.759 58.288 296.196 60.592 299.268 63.92C302.34 67.248 303.876 71.2587 303.876 75.952C303.876 81.1573 301.785 85.808 297.604 89.904C293.508 93.9147 287.748 95.92 280.324 95.92C276.057 95.92 272.217 95.28 268.804 94C265.476 92.72 262.831 91.0987 260.868 89.136C258.991 87.088 257.497 85.0827 256.388 83.12C255.364 81.072 254.767 79.0667 254.596 77.104ZM333.576 12.592V31.664H346.504V44.848H333.576V73.776C333.576 76.5067 334.216 78.512 335.496 79.792C336.776 80.9867 338.781 81.584 341.512 81.584C343.219 81.584 344.925 81.4133 346.632 81.072V93.36C344.413 94.2987 341.384 94.768 337.544 94.768C331.741 94.768 327.176 93.1467 323.848 89.904C320.52 86.576 318.856 82.0107 318.856 76.208V44.848H307.336V31.664H310.536C313.693 31.664 316.083 30.768 317.704 28.976C319.325 27.184 320.136 24.8373 320.136 21.936V12.592H333.576ZM367.663 55.984H398.255C398.084 52.0587 396.676 48.7733 394.031 46.128C391.471 43.4827 387.759 42.16 382.895 42.16C378.458 42.16 374.874 43.568 372.143 46.384C369.412 49.1147 367.919 52.3147 367.663 55.984ZM399.919 72.24L412.463 76.208C410.671 81.9253 407.3 86.6613 402.351 90.416C397.487 94.0853 391.471 95.92 384.303 95.92C375.428 95.92 367.876 92.8907 361.647 86.832C355.503 80.7733 352.431 72.6667 352.431 62.512C352.431 52.9547 355.418 45.104 361.391 38.96C367.45 32.816 374.575 29.744 382.767 29.744C392.324 29.744 399.791 32.688 405.167 38.576C410.543 44.3787 413.231 52.2293 413.231 62.128C413.231 64.7733 413.103 66.352 412.847 66.864H367.279C367.45 71.5573 369.156 75.44 372.399 78.512C375.727 81.584 379.695 83.12 384.303 83.12C392.324 83.12 397.53 79.4933 399.919 72.24ZM460.06 31.28V46.384C458.353 46.128 456.732 46 455.196 46C444.017 46 438.428 52.1013 438.428 64.304V94H423.58V31.664H438.044V41.648C439.495 38.32 441.841 35.7173 445.084 33.84C448.327 31.8773 451.996 30.896 456.092 30.896C457.457 30.896 458.78 31.024 460.06 31.28ZM93.8645 132.712H64.2965V209H48.9365V132.712H19.4965V118.248H93.8645V132.712ZM116.441 172.392V209H101.593V116.328H116.441V152.68C120.451 147.475 126.382 144.872 134.233 144.872C141.571 144.872 147.203 147.176 151.129 151.784C155.054 156.392 157.017 162.323 157.017 169.576V209H142.169V172.136C142.169 167.955 141.145 164.627 139.097 162.152C137.049 159.592 133.806 158.312 129.369 158.312C125.443 158.312 122.329 159.635 120.025 162.28C117.806 164.925 116.611 168.296 116.441 172.392ZM207.733 146.28V161.384C206.026 161.128 204.405 161 202.869 161C191.69 161 186.101 167.101 186.101 179.304V209H171.253V146.664H185.717V156.648C187.167 153.32 189.514 150.717 192.757 148.84C195.999 146.877 199.669 145.896 203.765 145.896C205.13 145.896 206.453 146.024 207.733 146.28ZM226.031 170.984H256.623C256.452 167.059 255.044 163.773 252.399 161.128C249.839 158.483 246.127 157.16 241.263 157.16C236.825 157.16 233.241 158.568 230.511 161.384C227.78 164.115 226.287 167.315 226.031 170.984ZM258.287 187.24L270.831 191.208C269.039 196.925 265.668 201.661 260.719 205.416C255.855 209.085 249.839 210.92 242.671 210.92C233.796 210.92 226.244 207.891 220.015 201.832C213.871 195.773 210.799 187.667 210.799 177.512C210.799 167.955 213.785 160.104 219.759 153.96C225.817 147.816 232.943 144.744 241.135 144.744C250.692 144.744 258.159 147.688 263.535 153.576C268.911 159.379 271.599 167.229 271.599 177.128C271.599 179.773 271.471 181.352 271.215 181.864H225.647C225.817 186.557 227.524 190.44 230.767 193.512C234.095 196.584 238.063 198.12 242.671 198.12C250.692 198.12 255.897 194.493 258.287 187.24ZM278.108 192.104C278.108 186.813 279.814 182.589 283.228 179.432C286.726 176.189 291.292 174.141 296.924 173.288L312.924 170.856C315.996 170.429 317.532 168.936 317.532 166.376C317.532 163.56 316.55 161.299 314.588 159.592C312.625 157.8 309.681 156.904 305.756 156.904C302.001 156.904 299.014 157.971 296.796 160.104C294.577 162.152 293.297 164.84 292.956 168.168L279.388 165.096C279.985 159.464 282.673 154.685 287.452 150.76C292.23 146.749 298.289 144.744 305.628 144.744C314.673 144.744 321.329 146.92 325.596 151.272C329.948 155.624 332.124 161.213 332.124 168.04V199.016C332.124 203.112 332.38 206.44 332.892 209H319.068C318.641 207.72 318.428 205.075 318.428 201.064C314.332 207.635 307.932 210.92 299.228 210.92C292.913 210.92 287.793 209.085 283.868 205.416C280.028 201.661 278.108 197.224 278.108 192.104ZM302.044 199.272C306.652 199.272 310.364 198.035 313.18 195.56C316.081 193 317.532 188.861 317.532 183.144V180.328L301.276 182.76C295.729 183.699 292.956 186.515 292.956 191.208C292.956 193.427 293.766 195.347 295.388 196.968C297.009 198.504 299.228 199.272 302.044 199.272ZM356.092 177.64C356.092 183.613 357.628 188.435 360.7 192.104C363.772 195.688 367.825 197.48 372.86 197.48C377.724 197.48 381.692 195.645 384.764 191.976C387.836 188.307 389.372 183.485 389.372 177.512C389.372 171.624 387.878 166.931 384.892 163.432C381.905 159.933 377.937 158.184 372.988 158.184C368.038 158.184 363.985 159.976 360.828 163.56C357.67 167.059 356.092 171.752 356.092 177.64ZM403.708 116.328V197.608C403.708 201.789 403.921 205.587 404.348 209H390.14C389.713 206.611 389.5 203.923 389.5 200.936C387.964 203.752 385.574 206.056 382.332 207.848C379.089 209.64 375.377 210.536 371.196 210.536C362.321 210.536 355.11 207.421 349.564 201.192C344.017 194.963 341.244 187.112 341.244 177.64C341.244 168.509 344.017 160.787 349.564 154.472C355.196 148.157 362.321 145 370.94 145C375.889 145 379.857 145.896 382.844 147.688C385.916 149.48 388.049 151.571 389.244 153.96V116.328H403.708ZM413.763 192.104L426.691 188.52C426.947 191.507 428.185 194.024 430.403 196.072C432.622 198.12 435.609 199.144 439.363 199.144C442.265 199.144 444.526 198.461 446.147 197.096C447.854 195.731 448.707 194.024 448.707 191.976C448.707 188.392 446.275 186.088 441.411 185.064L432.195 183.016C426.819 181.821 422.681 179.603 419.779 176.36C416.878 173.117 415.427 169.277 415.427 164.84C415.427 159.379 417.646 154.685 422.083 150.76C426.521 146.749 431.939 144.744 438.339 144.744C442.435 144.744 446.062 145.341 449.219 146.536C452.377 147.731 454.809 149.309 456.515 151.272C458.307 153.149 459.673 154.984 460.611 156.776C461.55 158.568 462.147 160.36 462.403 162.152L449.859 165.736C449.518 163.347 448.409 161.213 446.531 159.336C444.739 157.373 442.009 156.392 438.339 156.392C435.779 156.392 433.646 157.117 431.939 158.568C430.233 159.933 429.379 161.597 429.379 163.56C429.379 167.059 431.47 169.235 435.651 170.088L445.123 172.008C450.926 173.288 455.363 175.592 458.435 178.92C461.507 182.248 463.043 186.259 463.043 190.952C463.043 196.157 460.953 200.808 456.771 204.904C452.675 208.915 446.915 210.92 439.491 210.92C435.225 210.92 431.385 210.28 427.971 209C424.643 207.72 421.998 206.099 420.035 204.136C418.158 202.088 416.665 200.083 415.555 198.12C414.531 196.072 413.934 194.067 413.763 192.104Z" fill="white"/>
<path d="M14.173 82.992L13.4763 83.7094L13.4798 83.7127L14.173 82.992ZM14.429 14.384L13.7356 13.6634L13.7356 13.6634L14.429 14.384ZM73.437 9.64799L72.8158 10.4317L72.8204 10.4353L73.437 9.64799ZM87.389 30.768L87.7078 31.7158L88.5914 31.4187L88.3568 30.5164L87.389 30.768ZM72.925 35.632L71.954 35.8712L72.2139 36.9261L73.2437 36.5798L72.925 35.632ZM25.437 24.496L26.1336 25.2134L26.1338 25.2133L25.437 24.496ZM25.437 72.624L24.7351 73.3363L24.7404 73.3414L25.437 72.624ZM64.221 75.44L63.5808 74.6718L63.5808 74.6718L64.221 75.44ZM73.693 61.232L74.004 60.2816L73.0325 59.9636L72.736 60.942L73.693 61.232ZM87.773 65.84L88.7402 66.094L88.9795 65.1827L88.084 64.8896L87.773 65.84ZM73.693 87.216L73.0638 86.4387L73.0593 86.4425L73.693 87.216ZM46.685 94.92C34.2223 94.92 23.6353 90.7063 14.8662 82.2713L13.4798 83.7127C22.6307 92.5151 33.7184 96.92 46.685 96.92V94.92ZM14.8697 82.2746C6.21881 73.8733 1.861 62.7131 1.861 48.688H-0.138999C-0.138999 63.1642 4.37785 74.8734 13.4763 83.7094L14.8697 82.2746ZM1.861 48.688C1.861 34.7562 6.29896 23.595 15.1224 15.1046L13.7356 13.6634C4.46838 22.581 -0.138999 34.2891 -0.138999 48.688H1.861ZM15.1224 15.1046C23.9844 6.57694 34.4464 2.328 46.557 2.328V0.327995C33.9209 0.327995 22.9642 4.78305 13.7356 13.6634L15.1224 15.1046ZM46.557 2.328C57.306 2.328 66.032 5.0542 72.8158 10.4317L74.0582 8.86434C66.8474 3.14845 57.6534 0.327995 46.557 0.327995V2.328ZM72.8204 10.4353C79.7342 15.8497 84.2589 22.7031 86.4212 31.0196L88.3568 30.5164C86.0818 21.7662 81.3051 14.5396 74.0536 8.86069L72.8204 10.4353ZM87.0703 29.8202L72.6063 34.6842L73.2437 36.5798L87.7078 31.7158L87.0703 29.8202ZM73.896 35.3928C72.3969 29.3082 69.3421 24.339 64.7303 20.5254L63.4557 22.0666C67.7186 25.5917 70.5518 30.1798 71.954 35.8712L73.896 35.3928ZM64.7303 20.5254C60.0711 16.6726 53.981 14.792 46.557 14.792V16.792C53.6396 16.792 59.2402 18.5807 63.4557 22.0666L64.7303 20.5254ZM46.557 14.792C38.1823 14.792 30.8945 17.8003 24.7402 23.7787L26.1338 25.2133C31.9262 19.5864 38.7183 16.792 46.557 16.792V14.792ZM24.7404 23.7786C18.6096 29.7316 15.605 38.0837 15.605 48.688H17.605C17.605 38.471 20.4884 30.695 26.1336 25.2134L24.7404 23.7786ZM15.605 48.688C15.605 59.0453 18.6145 67.3044 24.7351 73.3362L26.1389 71.9117C20.4835 66.3383 17.605 58.64 17.605 48.688H15.605ZM24.7404 73.3414C30.8168 79.2417 38.15 82.2 46.685 82.2V80.2C38.6653 80.2 31.8332 77.441 26.1336 71.9066L24.7404 73.3414ZM46.685 82.2C53.9573 82.2 60.0421 80.2241 64.8612 76.2082L63.5808 74.6718C59.1839 78.3359 53.578 80.2 46.685 80.2V82.2ZM64.8612 76.2082C69.6162 72.2457 72.8856 67.3447 74.65 61.522L72.736 60.942C71.0871 66.3833 68.0418 70.9543 63.5808 74.6718L64.8612 76.2082ZM73.382 62.1824L87.462 66.7904L88.084 64.8896L74.004 60.2816L73.382 62.1824ZM86.8058 65.586C84.6444 73.8161 80.0761 80.7621 73.0638 86.4388L74.3222 87.9932C81.6459 82.0646 86.4643 74.7599 88.7402 66.094L86.8058 65.586ZM73.0593 86.4425C66.1882 92.0717 57.423 94.92 46.685 94.92V96.92C57.7923 96.92 67.0324 93.9656 74.3267 87.9895L73.0593 86.4425ZM97.4 64.432L98.079 65.1661L98.0798 65.1654L97.4 64.432ZM111.096 58.288L111.246 59.2767L111.246 59.2766L111.096 58.288ZM127.096 55.856L126.958 54.8654L126.946 54.8674L127.096 55.856ZM128.76 44.592L128.086 45.3305L128.095 45.3387L128.104 45.3466L128.76 44.592ZM110.968 45.104L111.646 45.8388L111.654 45.8319L111.661 45.8248L110.968 45.104ZM107.128 53.168L106.907 54.1433L108.008 54.3925L108.123 53.27L107.128 53.168ZM93.56 50.096L92.5656 49.9905L92.4718 50.8749L93.3392 51.0713L93.56 50.096ZM101.624 35.76L102.259 36.5328L102.267 36.526L101.624 35.76ZM139.768 36.272L139.054 36.9721L139.061 36.9791L139.768 36.272ZM147.064 94V95H148.284L148.045 93.8039L147.064 94ZM133.24 94L132.291 94.3162L132.519 95H133.24V94ZM132.6 86.064H133.6V82.5695L131.751 85.535L132.6 86.064ZM98.04 90.416L97.3409 91.131L97.3489 91.1389L97.3571 91.1465L98.04 90.416ZM127.352 80.56L128.012 81.3112L128.014 81.3098L127.352 80.56ZM131.704 65.328H132.704V64.1673L131.556 64.339L131.704 65.328ZM115.448 67.76L115.3 66.771L115.291 66.7724L115.281 66.774L115.448 67.76ZM109.56 81.968L108.853 82.6751L108.862 82.6847L108.872 82.694L109.56 81.968ZM93.28 77.104C93.28 72.0497 94.8995 68.1072 98.079 65.1661L96.721 63.6979C93.0739 67.0715 91.28 71.5769 91.28 77.104H93.28ZM98.0798 65.1654C101.405 62.0837 105.773 60.1059 111.246 59.2767L110.946 57.2993C105.155 58.1767 100.393 60.2949 96.7202 63.6986L98.0798 65.1654ZM111.246 59.2766L127.246 56.8446L126.946 54.8674L110.946 57.2994L111.246 59.2766ZM127.234 56.8465C128.89 56.6165 130.274 56.0812 131.249 55.133C132.248 54.1619 132.704 52.8694 132.704 51.376H130.704C130.704 52.4426 130.392 53.1768 129.855 53.699C129.294 54.2441 128.374 54.6689 126.958 54.8655L127.234 56.8465ZM132.704 51.376C132.704 48.2976 131.617 45.751 129.416 43.8374L128.104 45.3466C129.828 46.8463 130.704 48.8224 130.704 51.376H132.704ZM129.434 43.8535C127.216 41.8284 123.986 40.904 119.928 40.904V42.904C123.721 42.904 126.378 43.7716 128.086 45.3305L129.434 43.8535ZM119.928 40.904C115.975 40.904 112.719 42.033 110.275 44.3832L111.661 45.8248C113.654 43.9084 116.372 42.904 119.928 42.904V40.904ZM110.29 44.3692C107.872 46.6008 106.497 49.5237 106.133 53.066L108.123 53.27C108.442 50.1563 109.626 47.7032 111.646 45.8388L110.29 44.3692ZM107.349 52.1927L93.7808 49.1207L93.3392 51.0713L106.907 54.1433L107.349 52.1927ZM94.5544 50.2015C95.1214 44.8557 97.6624 40.3083 102.259 36.5327L100.989 34.9873C96.0283 39.0624 93.1933 44.0723 92.5656 49.9905L94.5544 50.2015ZM102.267 36.526C106.835 32.6923 112.653 30.744 119.8 30.744V28.744C112.27 28.744 105.971 30.8064 100.981 34.994L102.267 36.526ZM119.8 30.744C128.706 30.744 135.05 32.888 139.054 36.9721L140.482 35.5719C135.953 30.952 128.985 28.744 119.8 28.744V30.744ZM139.061 36.9791C143.204 41.1223 145.296 46.4468 145.296 53.04H147.296C147.296 45.9799 145.036 40.1257 140.475 35.5649L139.061 36.9791ZM145.296 53.04V84.016H147.296V53.04H145.296ZM145.296 84.016C145.296 88.1452 145.553 91.5459 146.083 94.1961L148.045 93.8039C147.551 91.3341 147.296 88.0788 147.296 84.016H145.296ZM147.064 93H133.24V95H147.064V93ZM134.189 93.6838C134.015 93.1623 133.862 92.2795 133.757 90.9756C133.653 89.6895 133.6 88.0546 133.6 86.064H131.6C131.6 88.0841 131.654 89.7772 131.763 91.1364C131.871 92.4779 132.038 93.5577 132.291 94.3162L134.189 93.6838ZM131.751 85.535C127.863 91.772 121.81 94.92 113.4 94.92V96.92C122.398 96.92 129.145 93.4973 133.449 86.593L131.751 85.535ZM113.4 94.92C107.292 94.92 102.431 93.1518 98.7229 89.6855L97.3571 91.1465C101.5 95.0189 106.879 96.92 113.4 96.92V94.92ZM98.7391 89.701C95.081 86.1242 93.28 81.9405 93.28 77.104H91.28C91.28 82.5075 93.319 87.1985 97.3409 91.131L98.7391 89.701ZM116.216 85.272C121.009 85.272 124.974 83.9808 128.012 81.3112L126.692 79.8088C124.098 82.0886 120.639 83.272 116.216 83.272V85.272ZM128.014 81.3098C131.216 78.4842 132.704 74.0093 132.704 68.144H130.704C130.704 73.7134 129.291 77.5158 126.69 79.8102L128.014 81.3098ZM132.704 68.144V65.328H130.704V68.144H132.704ZM131.556 64.339L115.3 66.771L115.596 68.749L131.852 66.317L131.556 64.339ZM115.281 66.774C112.385 67.2641 110.08 68.2652 108.496 69.8743C106.891 71.5039 106.128 73.6515 106.128 76.208H108.128C108.128 74.0712 108.752 72.4641 109.92 71.2777C111.109 70.0708 112.964 69.1946 115.615 68.746L115.281 66.774ZM106.128 76.208C106.128 78.7016 107.051 80.8732 108.853 82.6751L110.267 81.2609C108.826 79.8201 108.128 78.1517 108.128 76.208H106.128ZM108.872 82.694C110.724 84.4486 113.214 85.272 116.216 85.272V83.272C113.586 83.272 111.638 82.5594 110.248 81.242L108.872 82.694ZM175.253 94V95H176.253V94H175.253ZM160.405 94H159.405V95H160.405V94ZM160.405 31.664V30.664H159.405V31.664H160.405ZM174.869 31.664H175.869V30.664H174.869V31.664ZM174.869 39.984H173.869V43.7293L175.736 40.4825L174.869 39.984ZM182.677 32.432L183.124 33.3265L183.133 33.3218L182.677 32.432ZM210.069 36.784L210.837 36.1438L210.837 36.1438L210.069 36.784ZM215.829 94V95H216.829V94H215.829ZM200.981 94H199.981V95H200.981V94ZM197.909 47.152L197.128 47.7767L197.133 47.7832L197.139 47.7896L197.909 47.152ZM178.581 47.536L177.807 46.9028L177.805 46.9054L178.581 47.536ZM174.253 58.032V94H176.253V58.032H174.253ZM175.253 93H160.405V95H175.253V93ZM161.405 94V31.664H159.405V94H161.405ZM160.405 32.664H174.869V30.664H160.405V32.664ZM173.869 31.664V39.984H175.869V31.664H173.869ZM175.736 40.4825C177.609 37.2242 180.072 34.8523 183.124 33.3264L182.23 31.5376C178.796 33.2544 176.054 35.9172 174.002 39.4855L175.736 40.4825ZM183.133 33.3218C186.32 31.6879 189.704 30.872 193.301 30.872V28.872C189.388 28.872 185.69 29.7628 182.221 31.5422L183.133 33.3218ZM193.301 30.872C200.416 30.872 205.693 33.0947 209.301 37.4242L210.837 36.1438C206.765 31.2573 200.864 28.872 193.301 28.872V30.872ZM209.301 37.4242C212.961 41.8169 214.829 47.5057 214.829 54.576H216.829C216.829 47.1396 214.857 40.9671 210.837 36.1438L209.301 37.4242ZM214.829 54.576V94H216.829V54.576H214.829ZM215.829 93H200.981V95H215.829V93ZM201.981 94V57.136H199.981V94H201.981ZM201.981 57.136C201.981 52.7931 200.916 49.2165 198.679 46.5144L197.139 47.7896C198.998 50.0368 199.981 53.1162 199.981 57.136H201.981ZM198.69 46.5273C196.391 43.6531 192.808 42.312 188.181 42.312V44.312C192.429 44.312 195.331 45.5308 197.128 47.7767L198.69 46.5273ZM188.181 42.312C183.828 42.312 180.326 43.8236 177.807 46.9028L179.355 48.1692C181.444 45.6164 184.342 44.312 188.181 44.312V42.312ZM177.805 46.9054C175.412 49.85 174.253 53.5862 174.253 58.032H176.253C176.253 53.9444 177.312 50.6834 179.357 48.1666L177.805 46.9054ZM244.785 94V95H245.785V94H244.785ZM230.065 94H229.065V95H230.065V94ZM230.065 31.664V30.664H229.065V31.664H230.065ZM244.785 31.664H245.785V30.664H244.785V31.664ZM230.577 2.992L231.284 3.6991L231.292 3.69125L231.3 3.68322L230.577 2.992ZM244.273 2.864L243.566 3.5711L243.566 3.57111L244.273 2.864ZM244.785 93H230.065V95H244.785V93ZM231.065 94V31.664H229.065V94H231.065ZM230.065 32.664H244.785V30.664H230.065V32.664ZM243.785 31.664V94H245.785V31.664H243.785ZM231.284 15.8529C229.594 14.1623 228.761 12.155 228.761 9.77599H226.761C226.761 12.6876 227.806 15.203 229.87 17.2671L231.284 15.8529ZM228.761 9.77599C228.761 7.39696 229.594 5.38967 231.284 3.6991L229.87 2.28489C227.806 4.34899 226.761 6.86436 226.761 9.77599H228.761ZM231.3 3.68322C232.994 1.91184 234.997 1.048 237.361 1.048V-0.952003C234.435 -0.952003 231.915 0.146818 229.854 2.30077L231.3 3.68322ZM237.361 1.048C239.835 1.048 241.882 1.88721 243.566 3.5711L244.98 2.15689C242.909 0.0861199 240.348 -0.952003 237.361 -0.952003V1.048ZM243.566 3.57111C245.25 5.255 246.089 7.30208 246.089 9.77599H248.089C248.089 6.78857 247.051 4.22766 244.98 2.15689L243.566 3.57111ZM246.089 9.77599C246.089 12.155 245.256 14.1623 243.566 15.8529L244.98 17.2671C247.044 15.203 248.089 12.6876 248.089 9.77599H246.089ZM243.566 15.8529C241.882 17.5368 239.835 18.376 237.361 18.376V20.376C240.348 20.376 242.909 19.3379 244.98 17.2671L243.566 15.8529ZM237.361 18.376C234.982 18.376 232.975 17.5435 231.284 15.8529L229.87 17.2671C231.934 19.3312 234.449 20.376 237.361 20.376V18.376ZM254.596 77.104L254.329 76.1403L253.528 76.3624L253.6 77.1906L254.596 77.104ZM267.524 73.52L268.52 73.4346L268.417 72.2346L267.257 72.5563L267.524 73.52ZM271.236 81.072L270.558 81.8068L270.558 81.8068L271.236 81.072ZM286.98 82.096L286.355 81.3151L286.345 81.323L286.336 81.3311L286.98 82.096ZM282.244 70.064L282.027 71.0402L282.038 71.0425L282.244 70.064ZM273.028 68.016L273.245 67.0398L273.245 67.0398L273.028 68.016ZM260.612 61.36L261.357 60.6932L261.357 60.6932L260.612 61.36ZM262.916 35.76L263.579 36.509L263.587 36.5019L262.916 35.76ZM297.348 36.272L296.593 36.9282L296.609 36.9457L296.625 36.9625L297.348 36.272ZM301.444 41.776L302.33 41.312L302.33 41.312L301.444 41.776ZM303.236 47.152L303.511 48.1135L304.349 47.8739L304.226 47.0106L303.236 47.152ZM290.692 50.736L289.702 50.8774L289.864 52.0125L290.967 51.6975L290.692 50.736ZM287.364 44.336L286.626 45.0103L286.641 45.027L286.657 45.0431L287.364 44.336ZM272.772 43.568L273.397 44.3489L273.408 44.3396L273.42 44.3299L272.772 43.568ZM276.484 55.088L276.284 56.0678L276.285 56.0681L276.484 55.088ZM285.956 57.008L286.171 56.0315L286.163 56.0296L286.155 56.0279L285.956 57.008ZM299.268 63.92L298.533 64.5983L298.533 64.5983L299.268 63.92ZM297.604 89.904L298.304 90.6185L298.304 90.6184L297.604 89.904ZM268.804 94L268.445 94.9334L268.453 94.9363L268.804 94ZM260.868 89.136L260.131 89.8117L260.146 89.8277L260.161 89.8431L260.868 89.136ZM256.388 83.12L255.494 83.5672L255.505 83.5899L255.517 83.6121L256.388 83.12ZM254.863 78.0677L267.791 74.4837L267.257 72.5563L254.329 76.1403L254.863 78.0677ZM266.528 73.6054C266.805 76.8426 268.157 79.591 270.558 81.8068L271.914 80.3372C269.877 78.457 268.755 76.1707 268.52 73.4346L266.528 73.6054ZM270.558 81.8068C273.003 84.0643 276.254 85.144 280.196 85.144V83.144C276.629 83.144 273.906 82.1757 271.914 80.3372L270.558 81.8068ZM280.196 85.144C283.246 85.144 285.766 84.4259 287.624 82.8609L286.336 81.3311C284.952 82.4968 282.948 83.144 280.196 83.144V85.144ZM287.605 82.8769C289.53 81.3364 290.54 79.3505 290.54 76.976H288.54C288.54 78.6975 287.843 80.1249 286.355 81.3151L287.605 82.8769ZM290.54 76.976C290.54 74.9308 289.834 73.1891 288.404 71.834C287.004 70.5077 284.981 69.6183 282.45 69.0854L282.038 71.0425C284.371 71.5337 285.996 72.3083 287.028 73.286C288.03 74.2349 288.54 75.4372 288.54 76.976H290.54ZM282.461 69.0878L273.245 67.0398L272.811 68.9922L282.027 71.0402L282.461 69.0878ZM273.245 67.0398C268.019 65.8784 264.086 63.743 261.357 60.6932L259.867 62.0268C262.941 65.4623 267.285 67.7643 272.811 68.9922L273.245 67.0398ZM261.357 60.6932C258.624 57.6379 257.26 54.0367 257.26 49.84H255.26C255.26 54.518 256.798 58.5968 259.867 62.0268L261.357 60.6932ZM257.26 49.84C257.26 44.6914 259.335 40.2626 263.579 36.509L262.253 35.011C257.622 39.108 255.26 44.0659 255.26 49.84H257.26ZM263.587 36.5019C267.826 32.6696 273.001 30.744 279.172 30.744V28.744C272.543 28.744 266.88 30.8291 262.245 35.0181L263.587 36.5019ZM279.172 30.744C283.172 30.744 286.675 31.3274 289.698 32.4713L290.406 30.6007C287.114 29.3552 283.364 28.744 279.172 28.744V30.744ZM289.698 32.4713C292.746 33.6244 295.023 35.1219 296.593 36.9282L298.103 35.6158C296.26 33.4968 293.673 31.837 290.406 30.6007L289.698 32.4713ZM296.625 36.9625C298.369 38.7903 299.673 40.5502 300.558 42.24L302.33 41.312C301.338 39.4178 299.911 37.5084 298.071 35.5815L296.625 36.9625ZM300.558 42.24C301.45 43.9429 302.008 45.6265 302.246 47.2934L304.226 47.0106C303.952 45.0935 303.315 43.1931 302.33 41.312L300.558 42.24ZM302.961 46.1905L290.417 49.7745L290.967 51.6975L303.511 48.1135L302.961 46.1905ZM291.682 50.5946C291.307 47.9695 290.085 45.6431 288.071 43.6289L286.657 45.0431C288.397 46.7836 289.394 48.7238 289.702 50.8774L291.682 50.5946ZM288.102 43.6617C286.057 41.4219 283.012 40.392 279.172 40.392V42.392C282.671 42.392 285.087 43.3248 286.626 45.0103L288.102 43.6617ZM279.172 40.392C276.411 40.392 274.037 41.1799 272.124 42.8061L273.42 44.3299C274.92 43.0547 276.813 42.392 279.172 42.392V40.392ZM272.147 42.7871C270.234 44.3177 269.212 46.2564 269.212 48.56H271.212C271.212 46.9383 271.897 45.5489 273.397 44.3489L272.147 42.7871ZM269.212 48.56C269.212 50.5234 269.806 52.2049 271.059 53.5088C272.292 54.7923 274.074 55.6167 276.284 56.0678L276.684 54.1082C274.713 53.7059 273.359 53.0157 272.501 52.1232C271.663 51.2511 271.212 50.0953 271.212 48.56H269.212ZM276.285 56.0681L285.757 57.9881L286.155 56.0279L276.683 54.1079L276.285 56.0681ZM285.741 57.9845C291.405 59.2341 295.637 61.4609 298.533 64.5983L300.003 63.2417C296.755 59.723 292.112 57.3419 286.171 56.0315L285.741 57.9845ZM298.533 64.5983C301.428 67.7343 302.876 71.5 302.876 75.952H304.876C304.876 71.0173 303.252 66.7617 300.003 63.2417L298.533 64.5983ZM302.876 75.952C302.876 80.854 300.92 85.2561 296.904 89.1896L298.304 90.6184C302.651 86.3599 304.876 81.4607 304.876 75.952H302.876ZM296.904 89.1895C293.046 92.9678 287.567 94.92 280.324 94.92V96.92C287.929 96.92 293.97 94.8616 298.304 90.6185L296.904 89.1895ZM280.324 94.92C276.157 94.92 272.439 94.2951 269.155 93.0637L268.453 94.9363C271.996 96.2649 275.957 96.92 280.324 96.92V94.92ZM269.163 93.0667C265.93 91.8231 263.415 90.2687 261.575 88.4289L260.161 89.8431C262.246 91.9286 265.022 93.6169 268.445 94.9333L269.163 93.0667ZM261.605 88.4603C259.768 86.4559 258.323 84.5114 257.259 82.6279L255.517 83.6121C256.672 85.654 258.214 87.7201 260.131 89.8117L261.605 88.4603ZM257.282 82.6728C256.306 80.7195 255.75 78.8359 255.592 77.0174L253.6 77.1906C253.783 79.2975 254.422 81.4245 255.494 83.5672L257.282 82.6728ZM333.576 12.592H334.576V11.592H333.576V12.592ZM333.576 31.664H332.576V32.664H333.576V31.664ZM346.504 31.664H347.504V30.664H346.504V31.664ZM346.504 44.848V45.848H347.504V44.848H346.504ZM333.576 44.848V43.848H332.576V44.848H333.576ZM335.496 79.792L334.789 80.4991L334.801 80.5113L334.814 80.5231L335.496 79.792ZM346.632 81.072H347.632V79.8522L346.436 80.0914L346.632 81.072ZM346.632 93.36L347.022 94.281L347.632 94.0227V93.36H346.632ZM323.848 89.904L323.141 90.6112L323.15 90.6202L323.848 89.904ZM318.856 44.848H319.856V43.848H318.856V44.848ZM307.336 44.848H306.336V45.848H307.336V44.848ZM307.336 31.664V30.664H306.336V31.664H307.336ZM317.704 28.976L318.446 29.6469L318.446 29.6469L317.704 28.976ZM320.136 12.592V11.592H319.136V12.592H320.136ZM332.576 12.592V31.664H334.576V12.592H332.576ZM333.576 32.664H346.504V30.664H333.576V32.664ZM345.504 31.664V44.848H347.504V31.664H345.504ZM346.504 43.848H333.576V45.848H346.504V43.848ZM332.576 44.848V73.776H334.576V44.848H332.576ZM332.576 73.776C332.576 76.6389 333.245 78.9548 334.789 80.4991L336.203 79.0849C335.187 78.0692 334.576 76.3744 334.576 73.776H332.576ZM334.814 80.5231C336.359 81.9653 338.664 82.584 341.512 82.584V80.584C338.898 80.584 337.193 80.008 336.178 79.0609L334.814 80.5231ZM341.512 82.584C343.286 82.584 345.058 82.4066 346.828 82.0526L346.436 80.0914C344.792 80.4201 343.151 80.584 341.512 80.584V82.584ZM345.632 81.072V93.36H347.632V81.072H345.632ZM346.242 92.439C344.198 93.3038 341.32 93.768 337.544 93.768V95.768C341.447 95.768 344.628 95.2936 347.022 94.281L346.242 92.439ZM337.544 93.768C331.934 93.768 327.643 92.2058 324.546 89.1878L323.15 90.6202C326.709 94.0875 331.549 95.768 337.544 95.768V93.768ZM324.555 89.1969C321.456 86.0982 319.856 81.811 319.856 76.208H317.856C317.856 82.2103 319.584 87.0538 323.141 90.6111L324.555 89.1969ZM319.856 76.208V44.848H317.856V76.208H319.856ZM318.856 43.848H307.336V45.848H318.856V43.848ZM308.336 44.848V31.664H306.336V44.848H308.336ZM307.336 32.664H310.536V30.664H307.336V32.664ZM310.536 32.664C313.884 32.664 316.581 31.7079 318.446 29.6469L316.962 28.3051C315.584 29.8281 313.502 30.664 310.536 30.664V32.664ZM318.446 29.6469C320.265 27.6356 321.136 25.0328 321.136 21.936H319.136C319.136 24.6418 318.385 26.7324 316.962 28.3051L318.446 29.6469ZM321.136 21.936V12.592H319.136V21.936H321.136ZM320.136 13.592H333.576V11.592H320.136V13.592ZM367.663 55.984L366.665 55.9144L366.591 56.984H367.663V55.984ZM398.255 55.984V56.984H399.299L399.254 55.9406L398.255 55.984ZM394.031 46.128L393.312 46.8234L393.318 46.8293L393.324 46.8351L394.031 46.128ZM372.143 46.384L372.85 47.0911L372.856 47.0857L372.861 47.0801L372.143 46.384ZM399.919 72.24L400.221 71.2866L399.278 70.9885L398.969 71.9271L399.919 72.24ZM412.463 76.208L413.417 76.5071L413.716 75.5554L412.765 75.2546L412.463 76.208ZM402.351 90.416L402.953 91.2143L402.955 91.2127L402.351 90.416ZM361.647 86.832L360.945 87.5441L360.95 87.5489L361.647 86.832ZM361.391 38.96L360.679 38.2578L360.674 38.2629L361.391 38.96ZM405.167 38.576L404.429 39.2503L404.433 39.2556L405.167 38.576ZM412.847 66.864V67.864H413.465L413.741 67.3112L412.847 66.864ZM367.279 66.864V65.864H366.242L366.28 66.9003L367.279 66.864ZM372.399 78.512L371.711 79.238L371.721 79.2468L372.399 78.512ZM367.663 56.984H398.255V54.984H367.663V56.984ZM399.254 55.9406C399.073 51.7791 397.57 48.2527 394.738 45.4209L393.324 46.8351C395.783 49.294 397.096 52.3383 397.256 56.0274L399.254 55.9406ZM394.75 45.4326C391.946 42.5358 387.939 41.16 382.895 41.16V43.16C387.579 43.16 390.996 44.4295 393.312 46.8234L394.75 45.4326ZM382.895 41.16C378.226 41.16 374.37 42.6514 371.425 45.6879L372.861 47.0801C375.378 44.4846 378.689 43.16 382.895 43.16V41.16ZM371.436 45.6769C368.544 48.5688 366.939 51.9917 366.665 55.9144L368.661 56.0536C368.899 52.6376 370.281 49.6605 372.85 47.0911L371.436 45.6769ZM399.617 73.1934L412.161 77.1614L412.765 75.2546L400.221 71.2866L399.617 73.1934ZM411.509 75.9089C409.781 81.4204 406.537 85.9852 401.747 89.6193L402.955 91.2127C408.064 87.3374 411.561 82.4302 413.417 76.5071L411.509 75.9089ZM401.749 89.6177C397.088 93.1341 391.293 94.92 384.303 94.92V96.92C391.649 96.92 397.887 95.0366 402.953 91.2143L401.749 89.6177ZM384.303 94.92C375.683 94.92 368.382 91.988 362.344 86.1151L360.95 87.5489C367.37 93.7934 375.174 96.92 384.303 96.92V94.92ZM362.349 86.12C356.429 80.2823 353.431 72.4501 353.431 62.512H351.431C351.431 72.8832 354.577 81.2644 360.945 87.544L362.349 86.12ZM353.431 62.512C353.431 53.1823 356.338 45.5922 362.108 39.6571L360.674 38.2629C354.498 44.6158 351.431 52.727 351.431 62.512H353.431ZM362.103 39.6621C367.985 33.6974 374.858 30.744 382.767 30.744V28.744C374.292 28.744 366.914 31.9346 360.679 38.2579L362.103 39.6621ZM382.767 30.744C392.104 30.744 399.279 33.6107 404.429 39.2503L405.905 37.9017C400.303 31.7653 392.545 28.744 382.767 28.744V30.744ZM404.433 39.2556C409.598 44.83 412.231 52.4152 412.231 62.128H414.231C414.231 52.0434 411.488 43.9273 405.901 37.8964L404.433 39.2556ZM412.231 62.128C412.231 63.4389 412.199 64.4645 412.138 65.2152C412.108 65.5909 412.071 65.8828 412.031 66.0993C412.012 66.207 411.993 66.2877 411.976 66.3455C411.959 66.4061 411.949 66.4249 411.953 66.4168L413.741 67.3112C413.869 67.0555 413.945 66.7498 413.999 66.4607C414.055 66.1545 414.098 65.7905 414.132 65.3768C414.199 64.5488 414.231 63.4624 414.231 62.128H412.231ZM412.847 65.864H367.279V67.864H412.847V65.864ZM366.28 66.9003C366.459 71.8406 368.268 75.9758 371.711 79.238L373.087 77.786C370.045 74.9042 368.44 71.2741 368.278 66.8277L366.28 66.9003ZM371.721 79.2468C375.237 82.4926 379.448 84.12 384.303 84.12V82.12C379.942 82.12 376.217 80.6754 373.077 77.7772L371.721 79.2468ZM384.303 84.12C388.464 84.12 391.985 83.1782 394.795 81.2205C397.609 79.2597 399.621 76.3422 400.869 72.5529L398.969 71.9271C397.828 75.3912 396.042 77.9136 393.651 79.5795C391.256 81.2484 388.163 82.12 384.303 82.12V84.12ZM460.06 31.28H461.06V30.4602L460.256 30.2994L460.06 31.28ZM460.06 46.384L459.912 47.3729L461.06 47.5452V46.384H460.06ZM438.428 94V95H439.428V94H438.428ZM423.58 94H422.58V95H423.58V94ZM423.58 31.664V30.664H422.58V31.664H423.58ZM438.044 31.664H439.044V30.664H438.044V31.664ZM438.044 41.648H437.044L438.961 42.0476L438.044 41.648ZM445.084 33.84L445.585 34.7054L445.593 34.7005L445.602 34.6955L445.084 33.84ZM459.06 31.28V46.384H461.06V31.28H459.06ZM460.208 45.3951C458.458 45.1326 456.787 45 455.196 45V47C456.677 47 458.248 47.1234 459.912 47.3729L460.208 45.3951ZM455.196 45C449.429 45 444.926 46.5779 441.883 49.9005C438.854 53.2065 437.428 58.0692 437.428 64.304H439.428C439.428 58.3362 440.797 54.0468 443.357 51.2515C445.903 48.4728 449.784 47 455.196 47V45ZM437.428 64.304V94H439.428V64.304H437.428ZM438.428 93H423.58V95H438.428V93ZM424.58 94V31.664H422.58V94H424.58ZM423.58 32.664H438.044V30.664H423.58V32.664ZM437.044 31.664V41.648H439.044V31.664H437.044ZM438.961 42.0476C440.323 38.9219 442.521 36.4795 445.585 34.7054L444.583 32.9746C441.162 34.9552 438.666 37.7181 437.127 41.2484L438.961 42.0476ZM445.602 34.6955C448.676 32.835 452.163 31.896 456.092 31.896V29.896C451.829 29.896 447.978 30.9197 444.566 32.9845L445.602 34.6955ZM456.092 31.896C457.394 31.896 458.651 32.0181 459.864 32.2606L460.256 30.2994C458.909 30.0299 457.52 29.896 456.092 29.896V31.896ZM93.8645 132.712V133.712H94.8645V132.712H93.8645ZM64.2965 132.712V131.712H63.2965V132.712H64.2965ZM64.2965 209V210H65.2965V209H64.2965ZM48.9365 209H47.9365V210H48.9365V209ZM48.9365 132.712H49.9365V131.712H48.9365V132.712ZM19.4965 132.712H18.4965V133.712H19.4965V132.712ZM19.4965 118.248V117.248H18.4965V118.248H19.4965ZM93.8645 118.248H94.8645V117.248H93.8645V118.248ZM93.8645 131.712H64.2965V133.712H93.8645V131.712ZM63.2965 132.712V209H65.2965V132.712H63.2965ZM64.2965 208H48.9365V210H64.2965V208ZM49.9365 209V132.712H47.9365V209H49.9365ZM48.9365 131.712H19.4965V133.712H48.9365V131.712ZM20.4965 132.712V118.248H18.4965V132.712H20.4965ZM19.4965 119.248H93.8645V117.248H19.4965V119.248ZM92.8645 118.248V132.712H94.8645V118.248H92.8645ZM116.441 172.392L115.441 172.35L115.441 172.371V172.392H116.441ZM116.441 209V210H117.441V209H116.441ZM101.593 209H100.593V210H101.593V209ZM101.593 116.328V115.328H100.593V116.328H101.593ZM116.441 116.328H117.441V115.328H116.441V116.328ZM116.441 152.68H115.441V155.616L117.233 153.29L116.441 152.68ZM157.017 209V210H158.017V209H157.017ZM142.169 209H141.169V210H142.169V209ZM139.097 162.152L138.316 162.777L138.321 162.783L138.326 162.79L139.097 162.152ZM120.025 162.28L119.27 161.623L119.264 161.63L119.258 161.637L120.025 162.28ZM115.441 172.392V209H117.441V172.392H115.441ZM116.441 208H101.593V210H116.441V208ZM102.593 209V116.328H100.593V209H102.593ZM101.593 117.328H116.441V115.328H101.593V117.328ZM115.441 116.328V152.68H117.441V116.328H115.441ZM117.233 153.29C121.016 148.38 126.624 145.872 134.233 145.872V143.872C126.139 143.872 119.886 146.57 115.648 152.07L117.233 153.29ZM134.233 145.872C141.346 145.872 146.672 148.095 150.367 152.432L151.89 151.136C147.734 146.257 141.796 143.872 134.233 143.872V145.872ZM150.367 152.432C154.109 156.825 156.017 162.511 156.017 169.576H158.017C158.017 162.134 155.998 155.959 151.89 151.136L150.367 152.432ZM156.017 169.576V209H158.017V169.576H156.017ZM157.017 208H142.169V210H157.017V208ZM143.169 209V172.136H141.169V209H143.169ZM143.169 172.136C143.169 167.793 142.103 164.217 139.867 161.514L138.326 162.79C140.186 165.037 141.169 168.116 141.169 172.136H143.169ZM139.877 161.527C137.578 158.653 133.995 157.312 129.369 157.312V159.312C133.617 159.312 136.519 160.531 138.316 162.777L139.877 161.527ZM129.369 157.312C125.192 157.312 121.788 158.732 119.27 161.623L120.779 162.937C122.869 160.537 125.694 159.312 129.369 159.312V157.312ZM119.258 161.637C116.873 164.482 115.619 168.077 115.441 172.35L117.44 172.434C117.603 168.515 118.739 165.369 120.791 162.923L119.258 161.637ZM207.733 146.28H208.733V145.46L207.929 145.299L207.733 146.28ZM207.733 161.384L207.584 162.373L208.733 162.545V161.384H207.733ZM186.101 209V210H187.101V209H186.101ZM171.253 209H170.253V210H171.253V209ZM171.253 146.664V145.664H170.253V146.664H171.253ZM185.717 146.664H186.717V145.664H185.717V146.664ZM185.717 156.648H184.717L186.633 157.048L185.717 156.648ZM192.757 148.84L193.258 149.705L193.266 149.701L193.274 149.695L192.757 148.84ZM206.733 146.28V161.384H208.733V146.28H206.733ZM207.881 160.395C206.131 160.133 204.46 160 202.869 160V162C204.349 162 205.921 162.123 207.584 162.373L207.881 160.395ZM202.869 160C197.101 160 192.599 161.578 189.555 164.901C186.527 168.207 185.101 173.069 185.101 179.304H187.101C187.101 173.336 188.469 169.047 191.03 166.251C193.575 163.473 197.457 162 202.869 162V160ZM185.101 179.304V209H187.101V179.304H185.101ZM186.101 208H171.253V210H186.101V208ZM172.253 209V146.664H170.253V209H172.253ZM171.253 147.664H185.717V145.664H171.253V147.664ZM184.717 146.664V156.648H186.717V146.664H184.717ZM186.633 157.048C187.996 153.922 190.193 151.479 193.258 149.705L192.255 147.975C188.834 149.955 186.339 152.718 184.8 156.248L186.633 157.048ZM193.274 149.695C196.348 147.835 199.836 146.896 203.765 146.896V144.896C199.501 144.896 195.65 145.92 192.239 147.984L193.274 149.695ZM203.765 146.896C205.067 146.896 206.324 147.018 207.536 147.261L207.929 145.299C206.581 145.03 205.193 144.896 203.765 144.896V146.896ZM226.031 170.984L225.033 170.914L224.958 171.984H226.031V170.984ZM256.623 170.984V171.984H257.667L257.622 170.941L256.623 170.984ZM252.399 161.128L251.68 161.823L251.686 161.829L251.691 161.835L252.399 161.128ZM230.511 161.384L231.218 162.091L231.223 162.086L231.228 162.08L230.511 161.384ZM258.287 187.24L258.588 186.287L257.646 185.989L257.337 186.927L258.287 187.24ZM270.831 191.208L271.785 191.507L272.083 190.555L271.132 190.255L270.831 191.208ZM260.719 205.416L261.321 206.214L261.323 206.213L260.719 205.416ZM220.015 201.832L219.312 202.544L219.317 202.549L220.015 201.832ZM219.759 153.96L219.046 153.258L219.042 153.263L219.759 153.96ZM263.535 153.576L262.796 154.25L262.801 154.256L263.535 153.576ZM271.215 181.864V182.864H271.833L272.109 182.311L271.215 181.864ZM225.647 181.864V180.864H224.609L224.647 181.9L225.647 181.864ZM230.767 193.512L230.079 194.238L230.088 194.247L230.767 193.512ZM226.031 171.984H256.623V169.984H226.031V171.984ZM257.622 170.941C257.441 166.779 255.937 163.253 253.106 160.421L251.691 161.835C254.15 164.294 255.463 167.338 255.623 171.027L257.622 170.941ZM253.117 160.433C250.314 157.536 246.307 156.16 241.263 156.16V158.16C245.946 158.16 249.363 159.429 251.68 161.823L253.117 160.433ZM241.263 156.16C236.593 156.16 232.737 157.651 229.793 160.688L231.228 162.08C233.745 159.485 237.057 158.16 241.263 158.16V156.16ZM229.803 160.677C226.911 163.569 225.307 166.992 225.033 170.914L227.028 171.054C227.266 167.638 228.648 164.661 231.218 162.091L229.803 160.677ZM257.985 188.193L270.529 192.161L271.132 190.255L258.588 186.287L257.985 188.193ZM269.876 190.909C268.149 196.42 264.904 200.985 260.114 204.619L261.323 206.213C266.431 202.337 269.928 197.43 271.785 191.507L269.876 190.909ZM260.116 204.618C255.455 208.134 249.661 209.92 242.671 209.92V211.92C250.016 211.92 256.254 210.037 261.321 206.214L260.116 204.618ZM242.671 209.92C234.05 209.92 226.75 206.988 220.712 201.115L219.317 202.549C225.738 208.793 233.542 211.92 242.671 211.92V209.92ZM220.717 201.12C214.797 195.282 211.799 187.45 211.799 177.512H209.799C209.799 187.883 212.944 196.264 219.312 202.544L220.717 201.12ZM211.799 177.512C211.799 168.182 214.705 160.592 220.475 154.657L219.042 153.263C212.865 159.616 209.799 167.727 209.799 177.512H211.799ZM220.471 154.662C226.352 148.697 233.226 145.744 241.135 145.744V143.744C232.659 143.744 225.282 146.935 219.046 153.258L220.471 154.662ZM241.135 145.744C250.472 145.744 257.647 148.611 262.796 154.25L264.273 152.902C258.67 146.765 250.912 143.744 241.135 143.744V145.744ZM262.801 154.256C267.965 159.83 270.599 167.415 270.599 177.128H272.599C272.599 167.043 269.856 158.927 264.268 152.896L262.801 154.256ZM270.599 177.128C270.599 178.439 270.567 179.465 270.506 180.215C270.475 180.591 270.439 180.883 270.399 181.099C270.379 181.207 270.36 181.288 270.343 181.346C270.326 181.406 270.316 181.425 270.32 181.417L272.109 182.311C272.237 182.055 272.313 181.75 272.366 181.461C272.422 181.155 272.466 180.79 272.499 180.377C272.566 179.549 272.599 178.462 272.599 177.128H270.599ZM271.215 180.864H225.647V182.864H271.215V180.864ZM224.647 181.9C224.827 186.841 226.635 190.976 230.079 194.238L231.454 192.786C228.412 189.904 226.808 186.274 226.646 181.828L224.647 181.9ZM230.088 194.247C233.604 197.493 237.816 199.12 242.671 199.12V197.12C238.309 197.12 234.585 195.675 231.445 192.777L230.088 194.247ZM242.671 199.12C246.831 199.12 250.352 198.178 253.162 196.22C255.976 194.26 257.988 191.342 259.236 187.553L257.337 186.927C256.196 190.391 254.41 192.914 252.019 194.58C249.623 196.248 246.531 197.12 242.671 197.12V199.12ZM283.228 179.432L283.907 180.166L283.907 180.165L283.228 179.432ZM296.924 173.288L297.073 174.277L297.074 174.277L296.924 173.288ZM312.924 170.856L312.786 169.865L312.773 169.867L312.924 170.856ZM314.588 159.592L313.913 160.33L313.922 160.339L313.931 160.347L314.588 159.592ZM296.796 160.104L297.474 160.839L297.481 160.832L297.489 160.825L296.796 160.104ZM292.956 168.168L292.735 169.143L293.835 169.392L293.95 168.27L292.956 168.168ZM279.388 165.096L278.393 164.991L278.299 165.875L279.167 166.071L279.388 165.096ZM287.452 150.76L288.086 151.533L288.094 151.526L287.452 150.76ZM325.596 151.272L324.881 151.972L324.888 151.979L325.596 151.272ZM332.892 209V210H334.111L333.872 208.804L332.892 209ZM319.068 209L318.119 209.316L318.347 210H319.068V209ZM318.428 201.064H319.428V197.57L317.579 200.535L318.428 201.064ZM283.868 205.416L283.168 206.131L283.176 206.139L283.185 206.147L283.868 205.416ZM313.18 195.56L313.84 196.311L313.841 196.31L313.18 195.56ZM317.532 180.328H318.532V179.167L317.384 179.339L317.532 180.328ZM301.276 182.76L301.128 181.771L301.118 181.772L301.109 181.774L301.276 182.76ZM295.388 196.968L294.68 197.675L294.69 197.685L294.7 197.694L295.388 196.968ZM279.108 192.104C279.108 187.05 280.727 183.107 283.907 180.166L282.548 178.698C278.901 182.071 277.108 186.577 277.108 192.104H279.108ZM283.907 180.165C287.232 177.084 291.6 175.106 297.073 174.277L296.774 172.299C290.983 173.177 286.22 175.295 282.548 178.699L283.907 180.165ZM297.074 174.277L313.074 171.845L312.773 169.867L296.773 172.299L297.074 174.277ZM313.061 171.846C314.717 171.616 316.101 171.081 317.077 170.133C318.075 169.162 318.532 167.869 318.532 166.376H316.532C316.532 167.443 316.22 168.177 315.682 168.699C315.122 169.244 314.202 169.669 312.786 169.866L313.061 171.846ZM318.532 166.376C318.532 163.298 317.444 160.751 315.244 158.837L313.931 160.347C315.656 161.846 316.532 163.822 316.532 166.376H318.532ZM315.262 158.854C313.044 156.828 309.814 155.904 305.756 155.904V157.904C309.548 157.904 312.206 158.772 313.913 160.33L315.262 158.854ZM305.756 155.904C301.803 155.904 298.547 157.033 296.102 159.383L297.489 160.825C299.482 158.908 302.199 157.904 305.756 157.904V155.904ZM296.117 159.369C293.7 161.601 292.324 164.524 291.961 168.066L293.95 168.27C294.27 165.156 295.454 162.703 297.474 160.839L296.117 159.369ZM293.176 167.193L279.608 164.121L279.167 166.071L292.735 169.143L293.176 167.193ZM280.382 165.201C280.949 159.856 283.49 155.308 288.086 151.533L286.817 149.987C281.856 154.062 279.021 159.072 278.393 164.991L280.382 165.201ZM288.094 151.526C292.662 147.692 298.48 145.744 305.628 145.744V143.744C298.097 143.744 291.798 145.806 286.809 149.994L288.094 151.526ZM305.628 145.744C314.534 145.744 320.877 147.888 324.881 151.972L326.31 150.572C321.78 145.952 314.812 143.744 305.628 143.744V145.744ZM324.888 151.979C329.032 156.122 331.124 161.447 331.124 168.04H333.124C333.124 160.98 330.863 155.126 326.303 150.565L324.888 151.979ZM331.124 168.04V199.016H333.124V168.04H331.124ZM331.124 199.016C331.124 203.145 331.381 206.546 331.911 209.196L333.872 208.804C333.378 206.334 333.124 203.079 333.124 199.016H331.124ZM332.892 208H319.068V210H332.892V208ZM320.016 208.684C319.842 208.162 319.689 207.279 319.584 205.976C319.481 204.689 319.428 203.055 319.428 201.064H317.428C317.428 203.084 317.481 204.777 317.591 206.136C317.699 207.478 317.866 208.558 318.119 209.316L320.016 208.684ZM317.579 200.535C313.691 206.772 307.637 209.92 299.228 209.92V211.92C308.226 211.92 314.972 208.497 319.276 201.593L317.579 200.535ZM299.228 209.92C293.119 209.92 288.259 208.152 284.55 204.685L283.185 206.147C287.327 210.019 292.707 211.92 299.228 211.92V209.92ZM284.567 204.701C280.909 201.124 279.108 196.941 279.108 192.104H277.108C277.108 197.507 279.146 202.198 283.168 206.131L284.567 204.701ZM302.044 200.272C306.836 200.272 310.802 198.981 313.84 196.311L312.519 194.809C309.925 197.089 306.467 198.272 302.044 198.272V200.272ZM313.841 196.31C317.044 193.484 318.532 189.009 318.532 183.144H316.532C316.532 188.713 315.118 192.516 312.518 194.81L313.841 196.31ZM318.532 183.144V180.328H316.532V183.144H318.532ZM317.384 179.339L301.128 181.771L301.423 183.749L317.679 181.317L317.384 179.339ZM301.109 181.774C298.213 182.264 295.908 183.265 294.323 184.874C292.718 186.504 291.956 188.651 291.956 191.208H293.956C293.956 189.071 294.58 187.464 295.748 186.278C296.937 185.071 298.792 184.195 301.442 183.746L301.109 181.774ZM291.956 191.208C291.956 193.702 292.879 195.873 294.68 197.675L296.095 196.261C294.654 194.82 293.956 193.152 293.956 191.208H291.956ZM294.7 197.694C296.552 199.449 299.041 200.272 302.044 200.272V198.272C299.414 198.272 297.466 197.559 296.075 196.242L294.7 197.694ZM360.7 192.104L359.933 192.746L359.94 192.755L360.7 192.104ZM384.764 191.976L383.997 191.334L383.997 191.334L384.764 191.976ZM384.892 163.432L384.131 164.081L384.131 164.081L384.892 163.432ZM360.828 163.56L361.57 164.23L361.578 164.221L360.828 163.56ZM403.708 116.328H404.708V115.328H403.708V116.328ZM404.348 209V210H405.48L405.34 208.876L404.348 209ZM390.14 209L389.155 209.176L389.302 210H390.14V209ZM389.5 200.936H390.5L388.622 200.457L389.5 200.936ZM382.332 207.848L381.848 206.973L381.848 206.973L382.332 207.848ZM349.564 201.192L350.31 200.527L350.31 200.527L349.564 201.192ZM349.564 154.472L348.817 153.806L348.812 153.812L349.564 154.472ZM382.844 147.688L382.329 148.546L382.34 148.552L382.844 147.688ZM389.244 153.96L388.349 154.407L390.244 153.96H389.244ZM389.244 116.328V115.328H388.244V116.328H389.244ZM355.092 177.64C355.092 183.788 356.676 188.855 359.933 192.746L361.466 191.462C358.579 188.014 357.092 183.439 357.092 177.64H355.092ZM359.94 192.755C363.216 196.577 367.555 198.48 372.86 198.48V196.48C368.095 196.48 364.327 194.799 361.459 191.453L359.94 192.755ZM372.86 198.48C378.014 198.48 382.265 196.518 385.53 192.618L383.997 191.334C381.118 194.772 377.433 196.48 372.86 196.48V198.48ZM385.53 192.618C388.787 188.727 390.372 183.66 390.372 177.512H388.372C388.372 183.311 386.884 187.886 383.997 191.334L385.53 192.618ZM390.372 177.512C390.372 171.454 388.832 166.508 385.652 162.783L384.131 164.081C386.924 167.353 388.372 171.794 388.372 177.512H390.372ZM385.652 162.783C382.46 159.043 378.204 157.184 372.988 157.184V159.184C377.669 159.184 381.35 160.824 384.131 164.081L385.652 162.783ZM372.988 157.184C367.763 157.184 363.432 159.091 360.077 162.899L361.578 164.221C364.538 160.861 368.314 159.184 372.988 159.184V157.184ZM360.085 162.89C356.723 166.615 355.092 171.569 355.092 177.64H357.092C357.092 171.935 358.617 167.502 361.57 164.23L360.085 162.89ZM402.708 116.328V197.608H404.708V116.328H402.708ZM402.708 197.608C402.708 201.822 402.922 205.662 403.355 209.124L405.34 208.876C404.919 205.511 404.708 201.756 404.708 197.608H402.708ZM404.348 208H390.14V210H404.348V208ZM391.124 208.824C390.71 206.504 390.5 203.877 390.5 200.936H388.5C388.5 203.969 388.716 206.717 389.155 209.176L391.124 208.824ZM388.622 200.457C387.19 203.082 384.95 205.258 381.848 206.973L382.815 208.723C386.198 206.854 388.737 204.422 390.377 201.415L388.622 200.457ZM381.848 206.973C378.771 208.673 375.23 209.536 371.196 209.536V211.536C375.524 211.536 379.406 210.607 382.815 208.723L381.848 206.973ZM371.196 209.536C362.586 209.536 355.654 206.528 350.31 200.527L348.817 201.857C354.566 208.314 362.056 211.536 371.196 211.536V209.536ZM350.31 200.527C344.949 194.506 342.244 186.902 342.244 177.64H340.244C340.244 187.322 343.085 195.42 348.817 201.857L350.31 200.527ZM342.244 177.64C342.244 168.73 344.943 161.248 350.315 155.132L348.812 153.812C343.091 160.326 340.244 168.289 340.244 177.64H342.244ZM350.31 155.138C355.748 149.04 362.6 146 370.94 146V144C362.042 144 354.643 147.275 348.817 153.806L350.31 155.138ZM370.94 146C375.78 146 379.55 146.878 382.329 148.545L383.358 146.831C380.164 144.914 375.998 144 370.94 144V146ZM382.34 148.552C385.298 150.278 387.266 152.241 388.349 154.407L390.138 153.513C388.832 150.901 386.533 148.682 383.347 146.824L382.34 148.552ZM390.244 153.96V116.328H388.244V153.96H390.244ZM389.244 117.328H403.708V115.328H389.244V117.328ZM413.763 192.104L413.496 191.14L412.695 191.362L412.767 192.191L413.763 192.104ZM426.691 188.52L427.688 188.435L427.585 187.235L426.424 187.556L426.691 188.52ZM430.403 196.072L429.725 196.807L429.725 196.807L430.403 196.072ZM446.147 197.096L445.523 196.315L445.513 196.323L445.503 196.331L446.147 197.096ZM441.411 185.064L441.195 186.04L441.205 186.043L441.411 185.064ZM432.195 183.016L432.412 182.04L432.412 182.04L432.195 183.016ZM419.779 176.36L420.525 175.693L420.525 175.693L419.779 176.36ZM422.083 150.76L422.746 151.509L422.754 151.502L422.083 150.76ZM456.515 151.272L455.761 151.928L455.776 151.946L455.792 151.962L456.515 151.272ZM460.611 156.776L461.497 156.312L461.497 156.312L460.611 156.776ZM462.403 162.152L462.678 163.114L463.517 162.874L463.393 162.011L462.403 162.152ZM449.859 165.736L448.87 165.877L449.032 167.013L450.134 166.698L449.859 165.736ZM446.531 159.336L445.793 160.01L445.808 160.027L445.824 160.043L446.531 159.336ZM431.939 158.568L432.564 159.349L432.576 159.34L432.587 159.33L431.939 158.568ZM435.651 170.088L435.452 171.068L435.453 171.068L435.651 170.088ZM445.123 172.008L445.339 171.031L445.331 171.03L445.322 171.028L445.123 172.008ZM458.435 178.92L457.701 179.598L457.701 179.598L458.435 178.92ZM456.771 204.904L457.471 205.619L457.471 205.618L456.771 204.904ZM427.971 209L427.612 209.933L427.62 209.936L427.971 209ZM420.035 204.136L419.298 204.812L419.313 204.828L419.328 204.843L420.035 204.136ZM415.555 198.12L414.661 198.567L414.672 198.59L414.685 198.612L415.555 198.12ZM414.031 193.068L426.959 189.484L426.424 187.556L413.496 191.14L414.031 193.068ZM425.695 188.605C425.973 191.843 427.325 194.591 429.725 196.807L431.082 195.337C429.045 193.457 427.922 191.171 427.688 188.435L425.695 188.605ZM429.725 196.807C432.171 199.064 435.421 200.144 439.363 200.144V198.144C435.796 198.144 433.074 197.176 431.082 195.337L429.725 196.807ZM439.363 200.144C442.414 200.144 444.933 199.426 446.792 197.861L445.503 196.331C444.119 197.497 442.116 198.144 439.363 198.144V200.144ZM446.772 197.877C448.698 196.336 449.707 194.351 449.707 191.976H447.707C447.707 193.697 447.011 195.125 445.523 196.315L446.772 197.877ZM449.707 191.976C449.707 189.931 449.002 188.189 447.571 186.834C446.171 185.508 444.149 184.618 441.617 184.085L441.205 186.043C443.538 186.534 445.164 187.308 446.196 188.286C447.197 189.235 447.707 190.437 447.707 191.976H449.707ZM441.628 184.088L432.412 182.04L431.979 183.992L441.195 186.04L441.628 184.088ZM432.412 182.04C427.186 180.878 423.254 178.743 420.525 175.693L419.034 177.027C422.108 180.462 426.453 182.764 431.979 183.992L432.412 182.04ZM420.525 175.693C417.791 172.638 416.427 169.037 416.427 164.84H414.427C414.427 169.518 415.965 173.597 419.034 177.027L420.525 175.693ZM416.427 164.84C416.427 159.691 418.503 155.263 422.746 151.509L421.421 150.011C416.789 154.108 414.427 159.066 414.427 164.84H416.427ZM422.754 151.502C426.994 147.67 432.168 145.744 438.339 145.744V143.744C431.711 143.744 426.048 145.829 421.413 150.018L422.754 151.502ZM438.339 145.744C442.34 145.744 445.843 146.327 448.866 147.471L449.573 145.601C446.282 144.355 442.531 143.744 438.339 143.744V145.744ZM448.866 147.471C451.913 148.624 454.19 150.122 455.761 151.928L457.27 150.616C455.427 148.497 452.841 146.837 449.573 145.601L448.866 147.471ZM455.792 151.962C457.537 153.79 458.841 155.55 459.726 157.24L461.497 156.312C460.505 154.418 459.078 152.508 457.239 150.582L455.792 151.962ZM459.726 157.24C460.618 158.943 461.175 160.627 461.414 162.293L463.393 162.011C463.12 160.093 462.483 158.193 461.497 156.312L459.726 157.24ZM462.129 161.19L449.585 164.774L450.134 166.698L462.678 163.114L462.129 161.19ZM450.849 165.595C450.474 162.969 449.253 160.643 447.239 158.629L445.824 160.043C447.565 161.784 448.562 163.724 448.87 165.877L450.849 165.595ZM447.27 158.662C445.225 156.422 442.179 155.392 438.339 155.392V157.392C441.839 157.392 444.254 158.325 445.793 160.01L447.27 158.662ZM438.339 155.392C435.578 155.392 433.205 156.18 431.292 157.806L432.587 159.33C434.087 158.055 435.981 157.392 438.339 157.392V155.392ZM431.315 157.787C429.402 159.318 428.379 161.256 428.379 163.56H430.379C430.379 161.938 431.064 160.549 432.564 159.349L431.315 157.787ZM428.379 163.56C428.379 165.523 428.974 167.205 430.226 168.509C431.46 169.792 433.241 170.617 435.452 171.068L435.851 169.108C433.88 168.706 432.526 168.016 431.669 167.123C430.831 166.251 430.379 165.095 430.379 163.56H428.379ZM435.453 171.068L444.925 172.988L445.322 171.028L435.85 169.108L435.453 171.068ZM444.908 172.985C450.573 174.234 454.805 176.461 457.701 179.598L459.17 178.242C455.922 174.723 451.279 172.342 445.339 171.031L444.908 172.985ZM457.701 179.598C460.595 182.734 462.043 186.5 462.043 190.952H464.043C464.043 186.017 462.419 181.762 459.17 178.242L457.701 179.598ZM462.043 190.952C462.043 195.854 460.087 200.256 456.072 204.19L457.471 205.618C461.818 201.36 464.043 196.461 464.043 190.952H462.043ZM456.072 204.189C452.213 207.968 446.734 209.92 439.491 209.92V211.92C447.097 211.92 453.138 209.862 457.471 205.619L456.072 204.189ZM439.491 209.92C435.325 209.92 431.606 209.295 428.323 208.064L427.62 209.936C431.163 211.265 435.125 211.92 439.491 211.92V209.92ZM428.33 208.067C425.097 206.823 422.582 205.269 420.743 203.429L419.328 204.843C421.414 206.929 424.19 208.617 427.613 209.933L428.33 208.067ZM420.773 203.46C418.935 201.456 417.491 199.511 416.426 197.628L414.685 198.612C415.839 200.654 417.381 202.72 419.298 204.812L420.773 203.46ZM416.45 197.673C415.473 195.719 414.918 193.836 414.76 192.017L412.767 192.191C412.95 194.297 413.59 196.425 414.661 198.567L416.45 197.673Z" fill="white"/>
</svg>
