<svg width="477" height="211" viewBox="0 0 477 211" fill="none" xmlns="http://www.w3.org/2000/svg">
<path d="M46.685 95.92C33.9703 95.92 23.133 91.6107 14.173 82.992C5.29833 74.3733 0.861001 62.9387 0.861001 48.688C0.861001 34.5227 5.38367 23.088 14.429 14.384C23.4743 5.68 34.1837 1.328 46.557 1.328C57.4797 1.328 66.4397 4.10133 73.437 9.64799C80.5197 15.1947 85.1703 22.2347 87.389 30.768L72.925 35.632C71.4743 29.744 68.5303 24.9653 64.093 21.296C59.6557 17.6267 53.8103 15.792 46.557 15.792C38.4503 15.792 31.4103 18.6933 25.437 24.496C19.549 30.2133 16.605 38.2773 16.605 48.688C16.605 58.8427 19.549 66.8213 25.437 72.624C31.325 78.3413 38.4077 81.2 46.685 81.2C53.7677 81.2 59.613 79.28 64.221 75.44C68.829 71.6 71.9863 66.864 73.693 61.232L87.773 65.84C85.5543 74.288 80.861 81.4133 73.693 87.216C66.6103 93.0187 57.6077 95.92 46.685 95.92ZM92.28 77.104C92.28 71.8133 93.9867 67.5893 97.4 64.432C100.899 61.1893 105.464 59.1413 111.096 58.288L127.096 55.856C130.168 55.4293 131.704 53.936 131.704 51.376C131.704 48.56 130.723 46.2987 128.76 44.592C126.797 42.8 123.853 41.904 119.928 41.904C116.173 41.904 113.187 42.9707 110.968 45.104C108.749 47.152 107.469 49.84 107.128 53.168L93.56 50.096C94.1573 44.464 96.8453 39.6853 101.624 35.76C106.403 31.7493 112.461 29.744 119.8 29.744C128.845 29.744 135.501 31.92 139.768 36.272C144.12 40.624 146.296 46.2133 146.296 53.04V84.016C146.296 88.112 146.552 91.44 147.064 94H133.24C132.813 92.72 132.6 90.0747 132.6 86.064C128.504 92.6347 122.104 95.92 113.4 95.92C107.085 95.92 101.965 94.0853 98.04 90.416C94.2 86.6613 92.28 82.224 92.28 77.104ZM116.216 84.272C120.824 84.272 124.536 83.0347 127.352 80.56C130.253 78 131.704 73.8613 131.704 68.144V65.328L115.448 67.76C109.901 68.6987 107.128 71.5147 107.128 76.208C107.128 78.4267 107.939 80.3467 109.56 81.968C111.181 83.504 113.4 84.272 116.216 84.272ZM175.253 58.032V94H160.405V31.664H174.869V39.984C176.832 36.5707 179.434 34.0533 182.677 32.432C186.005 30.7253 189.546 29.872 193.301 29.872C200.64 29.872 206.229 32.176 210.069 36.784C213.909 41.392 215.829 47.3227 215.829 54.576V94H200.981V57.136C200.981 52.9547 199.957 49.6267 197.909 47.152C195.861 44.592 192.618 43.312 188.181 43.312C184.085 43.312 180.885 44.72 178.581 47.536C176.362 50.2667 175.253 53.7653 175.253 58.032ZM244.785 94H230.065V31.664H244.785V94ZM230.577 16.56C228.7 14.6827 227.761 12.4213 227.761 9.77599C227.761 7.13066 228.7 4.86933 230.577 2.992C232.454 1.02933 234.716 0.0479965 237.361 0.0479965C240.092 0.0479965 242.396 0.986664 244.273 2.864C246.15 4.74133 247.089 7.04533 247.089 9.77599C247.089 12.4213 246.15 14.6827 244.273 16.56C242.396 18.4373 240.092 19.376 237.361 19.376C234.716 19.376 232.454 18.4373 230.577 16.56ZM254.596 77.104L267.524 73.52C267.78 76.5067 269.017 79.024 271.236 81.072C273.455 83.12 276.441 84.144 280.196 84.144C283.097 84.144 285.359 83.4613 286.98 82.096C288.687 80.7307 289.54 79.024 289.54 76.976C289.54 73.392 287.108 71.088 282.244 70.064L273.028 68.016C267.652 66.8213 263.513 64.6027 260.612 61.36C257.711 58.1173 256.26 54.2773 256.26 49.84C256.26 44.3787 258.479 39.6853 262.916 35.76C267.353 31.7493 272.772 29.744 279.172 29.744C283.268 29.744 286.895 30.3413 290.052 31.536C293.209 32.7307 295.641 34.3093 297.348 36.272C299.14 38.1493 300.505 39.984 301.444 41.776C302.383 43.568 302.98 45.36 303.236 47.152L290.692 50.736C290.351 48.3467 289.241 46.2133 287.364 44.336C285.572 42.3733 282.841 41.392 279.172 41.392C276.612 41.392 274.479 42.1173 272.772 43.568C271.065 44.9333 270.212 46.5973 270.212 48.56C270.212 52.0587 272.303 54.2347 276.484 55.088L285.956 57.008C291.759 58.288 296.196 60.592 299.268 63.92C302.34 67.248 303.876 71.2587 303.876 75.952C303.876 81.1573 301.785 85.808 297.604 89.904C293.508 93.9147 287.748 95.92 280.324 95.92C276.057 95.92 272.217 95.28 268.804 94C265.476 92.72 262.831 91.0987 260.868 89.136C258.991 87.088 257.497 85.0827 256.388 83.12C255.364 81.072 254.767 79.0667 254.596 77.104ZM333.576 12.592V31.664H346.504V44.848H333.576V73.776C333.576 76.5067 334.216 78.512 335.496 79.792C336.776 80.9867 338.781 81.584 341.512 81.584C343.219 81.584 344.925 81.4133 346.632 81.072V93.36C344.413 94.2987 341.384 94.768 337.544 94.768C331.741 94.768 327.176 93.1467 323.848 89.904C320.52 86.576 318.856 82.0107 318.856 76.208V44.848H307.336V31.664H310.536C313.693 31.664 316.083 30.768 317.704 28.976C319.325 27.184 320.136 24.8373 320.136 21.936V12.592H333.576ZM367.663 55.984H398.255C398.084 52.0587 396.676 48.7733 394.031 46.128C391.471 43.4827 387.759 42.16 382.895 42.16C378.458 42.16 374.874 43.568 372.143 46.384C369.412 49.1147 367.919 52.3147 367.663 55.984ZM399.919 72.24L412.463 76.208C410.671 81.9253 407.3 86.6613 402.351 90.416C397.487 94.0853 391.471 95.92 384.303 95.92C375.428 95.92 367.876 92.8907 361.647 86.832C355.503 80.7733 352.431 72.6667 352.431 62.512C352.431 52.9547 355.418 45.104 361.391 38.96C367.45 32.816 374.575 29.744 382.767 29.744C392.324 29.744 399.791 32.688 405.167 38.576C410.543 44.3787 413.231 52.2293 413.231 62.128C413.231 64.7733 413.103 66.352 412.847 66.864H367.279C367.45 71.5573 369.156 75.44 372.399 78.512C375.727 81.584 379.695 83.12 384.303 83.12C392.324 83.12 397.53 79.4933 399.919 72.24ZM460.06 31.28V46.384C458.353 46.128 456.732 46 455.196 46C444.017 46 438.428 52.1013 438.428 64.304V94H423.58V31.664H438.044V41.648C439.495 38.32 441.841 35.7173 445.084 33.84C448.327 31.8773 451.996 30.896 456.092 30.896C457.457 30.896 458.78 31.024 460.06 31.28ZM76.847 132.712H47.279V209H31.919V132.712H2.479V118.248H76.847V132.712ZM99.423 172.392V209H84.575V116.328H99.423V152.68C103.434 147.475 109.364 144.872 117.215 144.872C124.554 144.872 130.186 147.176 134.111 151.784C138.036 156.392 139.999 162.323 139.999 169.576V209H125.151V172.136C125.151 167.955 124.127 164.627 122.079 162.152C120.031 159.592 116.788 158.312 112.351 158.312C108.426 158.312 105.311 159.635 103.007 162.28C100.788 164.925 99.5937 168.296 99.423 172.392ZM190.715 146.28V161.384C189.008 161.128 187.387 161 185.851 161C174.672 161 169.083 167.101 169.083 179.304V209H154.235V146.664H168.699V156.648C170.15 153.32 172.496 150.717 175.739 148.84C178.982 146.877 182.651 145.896 186.747 145.896C188.112 145.896 189.435 146.024 190.715 146.28ZM209.013 170.984H239.605C239.434 167.059 238.026 163.773 235.381 161.128C232.821 158.483 229.109 157.16 224.245 157.16C219.808 157.16 216.224 158.568 213.493 161.384C210.762 164.115 209.269 167.315 209.013 170.984ZM241.269 187.24L253.813 191.208C252.021 196.925 248.65 201.661 243.701 205.416C238.837 209.085 232.821 210.92 225.653 210.92C216.778 210.92 209.226 207.891 202.997 201.832C196.853 195.773 193.781 187.667 193.781 177.512C193.781 167.955 196.768 160.104 202.741 153.96C208.8 147.816 215.925 144.744 224.117 144.744C233.674 144.744 241.141 147.688 246.517 153.576C251.893 159.379 254.581 167.229 254.581 177.128C254.581 179.773 254.453 181.352 254.197 181.864H208.629C208.8 186.557 210.506 190.44 213.749 193.512C217.077 196.584 221.045 198.12 225.653 198.12C233.674 198.12 238.88 194.493 241.269 187.24ZM261.09 192.104C261.09 186.813 262.797 182.589 266.21 179.432C269.709 176.189 274.274 174.141 279.906 173.288L295.906 170.856C298.978 170.429 300.514 168.936 300.514 166.376C300.514 163.56 299.533 161.299 297.57 159.592C295.607 157.8 292.663 156.904 288.738 156.904C284.983 156.904 281.997 157.971 279.778 160.104C277.559 162.152 276.279 164.84 275.938 168.168L262.37 165.096C262.967 159.464 265.655 154.685 270.434 150.76C275.213 146.749 281.271 144.744 288.61 144.744C297.655 144.744 304.311 146.92 308.578 151.272C312.93 155.624 315.106 161.213 315.106 168.04V199.016C315.106 203.112 315.362 206.44 315.874 209H302.05C301.623 207.72 301.41 205.075 301.41 201.064C297.314 207.635 290.914 210.92 282.21 210.92C275.895 210.92 270.775 209.085 266.85 205.416C263.01 201.661 261.09 197.224 261.09 192.104ZM285.026 199.272C289.634 199.272 293.346 198.035 296.162 195.56C299.063 193 300.514 188.861 300.514 183.144V180.328L284.258 182.76C278.711 183.699 275.938 186.515 275.938 191.208C275.938 193.427 276.749 195.347 278.37 196.968C279.991 198.504 282.21 199.272 285.026 199.272ZM339.074 177.64C339.074 183.613 340.61 188.435 343.682 192.104C346.754 195.688 350.807 197.48 355.842 197.48C360.706 197.48 364.674 195.645 367.746 191.976C370.818 188.307 372.354 183.485 372.354 177.512C372.354 171.624 370.861 166.931 367.874 163.432C364.887 159.933 360.919 158.184 355.97 158.184C351.021 158.184 346.967 159.976 343.81 163.56C340.653 167.059 339.074 171.752 339.074 177.64ZM386.69 116.328V197.608C386.69 201.789 386.903 205.587 387.33 209H373.122C372.695 206.611 372.482 203.923 372.482 200.936C370.946 203.752 368.557 206.056 365.314 207.848C362.071 209.64 358.359 210.536 354.178 210.536C345.303 210.536 338.093 207.421 332.546 201.192C326.999 194.963 324.226 187.112 324.226 177.64C324.226 168.509 326.999 160.787 332.546 154.472C338.178 148.157 345.303 145 353.922 145C358.871 145 362.839 145.896 365.826 147.688C368.898 149.48 371.031 151.571 372.226 153.96V116.328H386.69ZM396.746 192.104L409.674 188.52C409.93 191.507 411.167 194.024 413.386 196.072C415.605 198.12 418.591 199.144 422.346 199.144C425.247 199.144 427.509 198.461 429.13 197.096C430.837 195.731 431.69 194.024 431.69 191.976C431.69 188.392 429.258 186.088 424.394 185.064L415.178 183.016C409.802 181.821 405.663 179.603 402.762 176.36C399.861 173.117 398.41 169.277 398.41 164.84C398.41 159.379 400.629 154.685 405.066 150.76C409.503 146.749 414.922 144.744 421.322 144.744C425.418 144.744 429.045 145.341 432.202 146.536C435.359 147.731 437.791 149.309 439.498 151.272C441.29 153.149 442.655 154.984 443.594 156.776C444.533 158.568 445.13 160.36 445.386 162.152L432.842 165.736C432.501 163.347 431.391 161.213 429.514 159.336C427.722 157.373 424.991 156.392 421.322 156.392C418.762 156.392 416.629 157.117 414.922 158.568C413.215 159.933 412.362 161.597 412.362 163.56C412.362 167.059 414.453 169.235 418.634 170.088L428.106 172.008C433.909 173.288 438.346 175.592 441.418 178.92C444.49 182.248 446.026 186.259 446.026 190.952C446.026 196.157 443.935 200.808 439.754 204.904C435.658 208.915 429.898 210.92 422.474 210.92C418.207 210.92 414.367 210.28 410.954 209C407.626 207.72 404.981 206.099 403.018 204.136C401.141 202.088 399.647 200.083 398.538 198.12C397.514 196.072 396.917 194.067 396.746 192.104ZM458.83 206.824C456.867 204.776 455.886 202.301 455.886 199.4C455.886 196.499 456.867 194.024 458.83 191.976C460.878 189.928 463.353 188.904 466.254 188.904C469.155 188.904 471.63 189.928 473.678 191.976C475.726 194.024 476.75 196.499 476.75 199.4C476.75 202.301 475.726 204.776 473.678 206.824C471.63 208.787 469.155 209.768 466.254 209.768C463.353 209.768 460.878 208.787 458.83 206.824Z" fill="url(#paint0_linear_2_15)"/>
<defs>
<linearGradient id="paint0_linear_2_15" x1="574" y1="209" x2="-121.11" y2="313.456" gradientUnits="userSpaceOnUse">
<stop stop-color="#3754FB"/>
<stop offset="1" stop-color="#FC01FF"/>
</linearGradient>
</defs>
</svg>
