<svg width="153" height="151" viewBox="0 0 153 151" fill="none" xmlns="http://www.w3.org/2000/svg">
<g clip-path="url(#clip0_2_2)">
<path d="M68.6076 15.6295L21.5359 46.8886C8.53736 55.5205 4.99711 73.0481 13.6285 86.0376L44.8855 133.077C53.5168 146.066 71.0513 149.599 84.0498 140.967L131.122 109.708C144.12 101.076 147.66 83.548 139.029 70.5586L107.772 23.5195C99.1405 10.53 81.6061 6.99757 68.6076 15.6295Z" fill="url(#paint0_linear_2_2)"/>
<path d="M99.465 109.484C98.9109 109.852 98.4499 109.759 98.082 109.205L92.0107 100.062C91.6427 99.5083 91.7358 99.0473 92.2899 98.6793C92.844 98.3114 93.305 98.4045 93.673 98.9586L99.7442 108.101C100.112 108.655 100.019 109.116 99.465 109.484ZM63.5894 55.4604C63.0353 55.8283 62.5742 55.7353 62.2063 55.1812L56.135 46.0387C55.7671 45.4846 55.8601 45.0236 56.4142 44.6556C56.9683 44.2877 57.4293 44.3808 57.7973 44.9348L63.8686 54.0773C64.2365 54.6314 64.1435 55.0924 63.5894 55.4604ZM95.7514 97.219C95.3095 96.7939 95.3287 96.342 95.8092 95.8632C96.2897 95.3844 96.7694 95.3853 97.2481 95.8658L104.733 103.71C105.212 104.191 105.211 104.67 104.73 105.149L104.564 105.26C104.121 105.554 103.697 105.516 103.291 105.147L95.7514 97.219ZM51.0359 50.2633C50.5939 49.8382 50.6132 49.3862 51.0937 48.9075C51.5742 48.4287 52.0538 48.4295 52.5326 48.91L60.0726 56.8376C60.5514 57.3181 60.5505 57.7977 60.07 58.2765L59.9038 58.3869C59.4605 58.6813 59.0363 58.6436 58.6311 58.2739L51.0359 50.2633ZM99.0227 93.849C98.4699 93.4975 98.397 93.0269 98.8039 92.4373C99.1554 91.8845 99.6259 91.8116 100.216 92.2185L108.976 98.737C109.51 99.1807 109.583 99.6513 109.194 100.149C109.176 100.241 109.111 100.324 109 100.397C108.612 100.655 108.234 100.627 107.866 100.312L99.0227 93.849ZM46.8484 55.3196C46.2588 54.9127 46.1859 54.4421 46.6296 53.908C46.9625 53.4474 47.4053 53.3928 47.9581 53.7443L56.8013 60.2077C57.2987 60.596 57.3717 61.0665 57.0202 61.6193C57.0015 61.7115 56.9368 61.7944 56.826 61.868C56.4382 62.1255 56.0323 62.1156 55.6085 61.8381L46.8484 55.3196ZM101.163 88.5953C101.422 88.0238 101.865 87.8494 102.492 88.0719L112.224 92.9872C112.832 93.3019 113.006 93.745 112.747 94.3164C112.673 94.4454 112.553 94.5651 112.387 94.6755C111.999 94.933 111.657 94.9601 111.363 94.7566L101.548 89.8965C101.327 89.8039 101.17 89.6283 101.078 89.3699C100.987 89.1115 101.015 88.8533 101.163 88.5953ZM43.5174 61.1246C42.9646 60.7731 42.8179 60.3116 43.0772 59.7402C43.3919 59.132 43.8533 58.9853 44.4615 59.3L54.2761 64.1601C54.8657 64.567 54.9941 65.0008 54.6612 65.4614C54.5131 65.7194 54.4114 65.8668 54.356 65.9036C54.0235 66.1243 53.6822 66.1514 53.332 65.9847L43.5174 61.1246ZM114.476 86.8205C115.066 86.9876 115.296 87.3939 115.166 88.0393C115.018 88.2973 114.888 88.4631 114.777 88.5367C114.5 88.7207 114.223 88.7848 113.947 88.7289L103.493 85.6109C103.216 85.5551 103.009 85.3933 102.871 85.1256C102.733 84.8578 102.71 84.6133 102.803 84.3921C102.859 84.1155 103.021 83.9083 103.288 83.7704C103.556 83.6325 103.801 83.6099 104.022 83.7025L114.476 86.8205ZM41.2649 67.2913C40.6381 67.0688 40.4083 66.6625 40.5754 66.0725C40.7611 65.3903 41.1673 65.1604 41.7941 65.3829L52.3314 68.4457C53.0137 68.6314 53.2435 69.0377 53.021 69.6645C52.9652 69.9411 52.8264 70.153 52.6048 70.3002C52.3832 70.4473 52.1156 70.4653 51.8022 70.3541L41.2649 67.2913ZM115.733 80.237C116.378 80.3673 116.664 80.7368 116.589 81.3454C116.57 81.6774 116.422 81.9354 116.145 82.1194C116.034 82.193 115.831 82.248 115.536 82.2843L104.552 81.0747C103.851 80.9812 103.566 80.6118 103.696 79.9663C103.735 79.3023 104.086 78.9893 104.75 79.0274L115.733 80.237ZM40.1741 73.7644C39.8789 73.8008 39.6485 73.6943 39.4829 73.4449C39.3173 73.1956 39.2348 72.951 39.2352 72.7112C39.3655 72.0658 39.7627 71.7621 40.4267 71.8002L51.3269 73.065C51.991 73.1031 52.2763 73.4726 52.1828 74.1734C52.1269 74.45 51.9605 74.6803 51.6834 74.8643C51.5726 74.9379 51.3696 74.9929 51.0744 75.0292L40.1741 73.7644ZM40.1898 80.4609C39.5257 80.4228 39.185 80.0902 39.1677 79.4629C39.1313 79.1677 39.2056 78.9188 39.3904 78.7162C39.5753 78.5136 39.7876 78.4125 40.0274 78.413L50.9588 77.7408C51.6415 77.6867 52.0099 78.001 52.064 78.6836C52.0817 79.0711 51.9244 79.3752 51.5919 79.5959C51.5365 79.6327 51.3612 79.6693 51.066 79.7057L40.1898 80.4609ZM41.3404 86.8827C40.6759 87.0845 40.2705 86.8347 40.1242 86.1334C39.8671 85.5058 40.0891 85.1188 40.7904 84.9724L51.5315 82.3906C52.2328 82.2443 52.6382 82.4941 52.7477 83.1399C52.8023 83.5828 52.6356 83.933 52.2478 84.1906L51.9984 84.3561L41.3404 86.8827ZM43.543 93.0851C43.3213 93.2323 43.0769 93.2549 42.8096 93.153C42.5422 93.051 42.3627 92.8708 42.2709 92.6124C42.0138 91.9847 42.1991 91.5423 42.8267 91.2852L52.8517 86.9034C53.4793 86.6463 53.9034 86.8039 54.1237 87.3761C54.344 87.9484 54.2326 88.3817 53.7893 88.6761L53.6231 88.7865L43.543 93.0851ZM46.9085 98.8745C46.3544 99.2424 45.8934 99.1494 45.5254 98.5953C45.1574 98.0412 45.2505 97.5802 45.8046 97.2122L54.9471 91.1409C55.5012 90.773 55.9622 90.866 56.3301 91.4201C56.6981 91.9742 56.605 92.4352 56.0509 92.8032L46.9085 98.8745ZM57.7905 94.8817C58.2156 94.4397 58.6675 94.459 59.1463 94.9395C59.5883 95.3645 59.569 95.8165 59.0885 96.2953L51.1609 103.835C51.1423 103.927 51.1053 103.992 51.0499 104.029C50.6066 104.323 50.164 104.258 49.722 103.833C49.2801 103.408 49.2993 102.956 49.7798 102.477L57.7905 94.8817ZM61.1605 98.153C61.5674 97.5634 62.038 97.4904 62.5722 97.9341C63.0328 98.267 63.0873 98.7099 62.7358 99.2627L56.1893 108.161C56.1339 108.198 56.1016 108.239 56.0923 108.285C56.083 108.332 56.0506 108.373 55.9952 108.41C55.6074 108.667 55.2015 108.657 54.7777 108.38C54.2249 108.028 54.152 107.558 54.5589 106.968L61.1605 98.153ZM65.113 100.678C65.3169 100.144 65.7322 99.9875 66.359 100.21C66.9305 100.469 67.1049 100.912 66.8824 101.539L61.9392 111.409C61.7911 111.667 61.6894 111.814 61.634 111.851C61.3015 112.072 60.9602 112.099 60.61 111.932C60.0018 111.618 59.855 111.156 60.1697 110.548L65.113 100.678ZM85.2619 52.2065C84.6351 51.984 84.3868 51.55 84.5171 50.9046L87.6351 40.4504C87.691 40.1738 87.8527 39.9665 88.1205 39.8286C88.3882 39.6908 88.6327 39.6682 88.8539 39.7608C89.5361 39.9465 89.766 40.3527 89.5435 40.9796L86.4807 51.5169C86.3326 51.7749 86.2032 51.9407 86.0924 52.0142C85.8153 52.1982 85.5385 52.2623 85.2619 52.2065ZM69.3434 102.54C69.5659 101.913 69.9905 101.711 70.6173 101.933C71.2074 102.1 71.4372 102.507 71.3069 103.152L68.1058 113.661C68.1054 113.901 67.9944 114.095 67.7727 114.242C67.5511 114.389 67.2559 114.425 66.887 114.351C66.2602 114.129 66.0581 113.704 66.2806 113.077L69.3434 102.54ZM80.7809 51.2299C80.1168 51.1918 79.8316 50.8223 79.9251 50.1215L81.162 39.3596C81.2001 38.6955 81.5511 38.3825 82.2152 38.4206C82.8974 38.6063 83.1827 38.9758 83.071 39.529L81.8893 50.3741C81.8702 50.7061 81.7222 50.9641 81.4451 51.1481C81.2789 51.2585 81.0575 51.2857 80.7809 51.2299ZM74.988 102.744C75.6334 102.874 75.9371 103.271 75.899 103.935L74.7173 114.78C74.6614 115.057 74.495 115.287 74.218 115.471C73.9963 115.618 73.7933 115.673 73.6089 115.636C72.9448 115.598 72.6319 115.247 72.67 114.583L73.9348 103.683C73.9728 103.019 74.3239 102.706 74.988 102.744ZM76.3259 51.1942C75.6432 51.2483 75.2748 50.9341 75.2207 50.2514L74.5486 39.32C74.5312 38.6928 74.8455 38.3244 75.4914 38.2148C76.1554 38.2529 76.4961 38.5856 76.5134 39.2128L77.1856 50.1443C77.2587 50.4949 77.1291 50.7806 76.7966 51.0014C76.575 51.1485 76.4181 51.2128 76.3259 51.1942ZM79.4982 102.862C80.1808 102.808 80.5492 103.123 80.6033 103.805L81.2755 114.737C81.2932 115.124 81.1359 115.428 80.8034 115.649C80.6372 115.759 80.4803 115.824 80.3327 115.842C79.7054 115.859 79.3647 115.526 79.3106 114.844L78.5554 103.968C78.5381 103.34 78.8523 102.972 79.4982 102.862ZM71.8143 51.7949C71.1685 51.9044 70.7631 51.6546 70.5982 51.0456L68.0715 40.3875C67.962 39.7417 68.1841 39.3547 68.7378 39.2265C69.3468 39.0616 69.7522 39.3114 69.9539 39.9758L72.5637 50.5787C72.5996 51.1137 72.4513 51.4916 72.1189 51.7124C72.0081 51.786 71.9065 51.8135 71.8143 51.7949ZM84.0097 102.262C84.711 102.115 85.1164 102.365 85.2259 103.011L87.7525 113.669C87.9547 114.094 87.8341 114.453 87.3908 114.748C87.28 114.821 87.1508 114.867 87.0032 114.885C86.4863 115.069 86.0993 114.847 85.8422 114.219L83.2604 103.478C83.1141 102.777 83.3638 102.371 84.0097 102.262ZM67.495 53.226C66.8674 53.4832 66.4433 53.3256 66.223 52.7533L61.7861 42.6453C61.5289 42.0176 61.7142 41.5752 62.3419 41.3181C62.9696 41.0609 63.412 41.2462 63.6691 41.8739L68.0509 51.8988C68.2712 52.4711 68.1597 52.9044 67.7165 53.1987C67.661 53.2355 67.5872 53.2446 67.495 53.226ZM93.4822 112.739C92.8545 112.996 92.4121 112.81 92.1549 112.183L87.7732 102.158C87.5161 101.53 87.7013 101.088 88.329 100.831C88.5506 100.683 88.7951 100.661 89.0624 100.763C89.3297 100.865 89.5093 101.045 89.6011 101.303L93.9828 111.328C94.2031 111.9 94.0916 112.334 93.6484 112.628L93.4822 112.739Z" fill="white" stroke="white" stroke-width="1.25"/>
</g>
<defs>
<linearGradient id="paint0_linear_2_2" x1="65.1412" y1="154.371" x2="96.6784" y2="7.30414" gradientUnits="userSpaceOnUse">
<stop stop-color="#3754FB"/>
<stop offset="1" stop-color="#FC01FF"/>
</linearGradient>
<clipPath id="clip0_2_2">
<rect width="153" height="151" fill="white"/>
</clipPath>
</defs>
</svg>
