<svg width="153" height="151" viewBox="0 0 153 151" fill="none" xmlns="http://www.w3.org/2000/svg">
<g clip-path="url(#clip0_2_2)">
<path d="M68.6076 15.6295L21.5359 46.8886C8.53736 55.5205 4.99711 73.0481 13.6285 86.0376L44.8855 133.077C53.5168 146.066 71.0513 149.599 84.0498 140.967L131.122 109.708C144.12 101.076 147.66 83.548 139.029 70.5586L107.772 23.5195C99.1405 10.53 81.6061 6.99757 68.6076 15.6295Z" fill="url(#paint0_linear_2_2)"/>
<path d="M100.827 108.113C100.273 108.481 99.8121 108.388 99.4441 107.834L93.3729 98.6918C93.0049 98.1377 93.098 97.6767 93.6521 97.3087C94.2062 96.9408 94.6672 97.0339 95.0351 97.5879L101.106 106.73C101.474 107.285 101.381 107.746 100.827 108.113ZM64.9515 54.0898C64.3974 54.4577 63.9364 54.3647 63.5685 53.8106L57.4972 44.6681C57.1292 44.114 57.2223 43.653 57.7764 43.285C58.3305 42.9171 58.7915 43.0102 59.1595 43.5642L65.2307 52.7067C65.5987 53.2608 65.5056 53.7218 64.9515 54.0898ZM97.1136 95.8484C96.6716 95.4233 96.6909 94.9714 97.1714 94.4926C97.6519 94.0138 98.1315 94.0147 98.6103 94.4952L106.095 102.34C106.574 102.82 106.573 103.3 106.093 103.779L105.926 103.889C105.483 104.183 105.059 104.146 104.654 103.776L97.1136 95.8484ZM52.3981 48.8927C51.9561 48.4676 51.9753 48.0156 52.4558 47.5369C52.9363 47.0581 53.416 47.0589 53.8948 47.5394L61.4348 55.467C61.9136 55.9475 61.9127 56.4271 61.4322 56.9059L61.266 57.0163C60.8227 57.3107 60.3985 57.273 59.9933 56.9033L52.3981 48.8927ZM100.385 92.4784C99.8321 92.1269 99.7591 91.6563 100.166 91.0667C100.518 90.5139 100.988 90.441 101.578 90.8479L110.338 97.3664C110.872 97.8101 110.945 98.2807 110.557 98.778C110.538 98.8703 110.473 98.9532 110.362 99.0268C109.975 99.2843 109.597 99.256 109.228 98.9417L100.385 92.4784ZM48.2106 53.949C47.621 53.5421 47.5481 53.0715 47.9918 52.5374C48.3247 52.0768 48.7675 52.0222 49.3203 52.3737L58.1635 58.8371C58.6609 59.2254 58.7338 59.6959 58.3823 60.2487C58.3637 60.3409 58.299 60.4238 58.1882 60.4974C57.8003 60.7549 57.3945 60.745 56.9707 60.4675L48.2106 53.949ZM102.525 87.2246C102.784 86.6532 103.227 86.4788 103.854 86.7013L113.586 91.6166C114.194 91.9313 114.368 92.3744 114.109 92.9458C114.035 93.0748 113.915 93.1945 113.749 93.3049C113.361 93.5624 113.019 93.5895 112.725 93.386L102.91 88.5259C102.689 88.4333 102.532 88.2577 102.441 87.9993C102.349 87.7409 102.377 87.4826 102.525 87.2246ZM44.8796 59.754C44.3268 59.4025 44.18 58.941 44.4393 58.3696C44.754 57.7614 45.2155 57.6147 45.8237 57.9294L55.6383 62.7895C56.2279 63.1964 56.3562 63.6302 56.0234 64.0908C55.8753 64.3488 55.7736 64.4962 55.7182 64.533C55.3857 64.7537 55.0444 64.7808 54.6942 64.6141L44.8796 59.754ZM115.838 85.4499C116.428 85.617 116.658 86.0233 116.528 86.6687C116.38 86.9267 116.25 87.0925 116.139 87.1661C115.862 87.3501 115.586 87.4141 115.309 87.3583L104.855 84.2403C104.578 84.1845 104.371 84.0227 104.233 83.755C104.095 83.4872 104.073 83.2427 104.165 83.0215C104.221 82.7449 104.383 82.5377 104.651 82.3998C104.918 82.2619 105.163 82.2393 105.384 82.3319L115.838 85.4499ZM42.6271 65.9207C42.0003 65.6982 41.7704 65.2919 41.9375 64.7019C42.1232 64.0197 42.5295 63.7898 43.1563 64.0123L53.6936 67.0751C54.3758 67.2608 54.6057 67.6671 54.3832 68.2939C54.3274 68.5705 54.1886 68.7824 53.967 68.9296C53.7453 69.0767 53.4778 69.0947 53.1644 68.9835L42.6271 65.9207ZM117.095 78.8664C117.741 78.9967 118.026 79.3662 117.951 79.9748C117.932 80.3068 117.784 80.5648 117.507 80.7488C117.396 80.8224 117.193 80.8774 116.898 80.9137L105.914 79.7041C105.214 79.6106 104.928 79.2412 105.059 78.5957C105.097 77.9317 105.448 77.6187 106.112 77.6568L117.095 78.8664ZM41.5363 72.3938C41.2411 72.4302 41.0107 72.3237 40.8451 72.0743C40.6795 71.825 40.5969 71.5804 40.5974 71.3406C40.7277 70.6952 41.1248 70.3915 41.7889 70.4296L52.6891 71.6944C53.3532 71.7325 53.6384 72.102 53.5449 72.8028C53.4891 73.0794 53.3227 73.3097 53.0456 73.4937C52.9348 73.5673 52.7318 73.6222 52.4365 73.6586L41.5363 72.3938ZM41.5519 79.0903C40.8879 79.0522 40.5472 78.7196 40.5299 78.0923C40.4935 77.7971 40.5678 77.5482 40.7526 77.3456C40.9374 77.143 41.1498 77.0419 41.3896 77.0423L52.321 76.3702C53.0036 76.3161 53.372 76.6304 53.4261 77.313C53.4439 77.7005 53.2865 78.0046 52.9541 78.2253C52.8987 78.2621 52.7234 78.2987 52.4281 78.3351L41.5519 79.0903ZM42.7026 85.5121C42.0381 85.7139 41.6327 85.4641 41.4864 84.7628C41.2292 84.1351 41.4513 83.7481 42.1526 83.6018L52.8937 81.02C53.595 80.8737 54.0004 81.1235 54.1099 81.7693C54.1645 82.2122 53.9978 82.5624 53.6099 82.82L53.3606 82.9855L42.7026 85.5121ZM44.9051 91.7145C44.6835 91.8617 44.439 91.8843 44.1717 91.7824C43.9044 91.6804 43.7249 91.5002 43.6331 91.2418C43.376 90.6141 43.5612 90.1717 44.1889 89.9146L54.2138 85.5328C54.8415 85.2757 55.2655 85.4333 55.4859 86.0055C55.7062 86.5778 55.5947 87.0111 55.1515 87.3055L54.9853 87.4159L44.9051 91.7145ZM48.2706 97.5039C47.7165 97.8718 47.2555 97.7788 46.8876 97.2247C46.5196 96.6706 46.6127 96.2096 47.1668 95.8416L56.3092 89.7703C56.8633 89.4024 57.3244 89.4954 57.6923 90.0495C58.0603 90.6036 57.9672 91.0646 57.4131 91.4326L48.2706 97.5039ZM59.1527 93.5111C59.5778 93.0691 60.0297 93.0884 60.5085 93.5689C60.9504 93.9939 60.9312 94.4459 60.4507 94.9247L52.5231 102.465C52.5045 102.557 52.4675 102.621 52.4121 102.658C51.9688 102.953 51.5262 102.887 51.0842 102.462C50.6422 102.037 50.6615 101.585 51.142 101.106L59.1527 93.5111ZM62.5227 96.7824C62.9296 96.1928 63.4002 96.1198 63.9343 96.5635C64.3949 96.8964 64.4495 97.3393 64.098 97.8921L57.5515 106.79C57.4961 106.827 57.4638 106.869 57.4545 106.915C57.4451 106.961 57.4128 107.002 57.3574 107.039C56.9695 107.297 56.5637 107.287 56.1399 107.009C55.5871 106.658 55.5142 106.187 55.9211 105.598L62.5227 96.7824ZM66.4752 99.3076C66.6791 98.773 67.0944 98.6169 67.7212 98.8394C68.2926 99.0987 68.4671 99.5417 68.2446 100.169L63.3013 110.038C63.1533 110.296 63.0516 110.444 62.9962 110.481C62.6637 110.701 62.3224 110.728 61.9722 110.562C61.364 110.247 61.2172 109.786 61.5319 109.177L66.4752 99.3076ZM86.6241 50.8359C85.9973 50.6134 85.749 50.1794 85.8793 49.534L88.9973 39.0798C89.0531 38.8032 89.2149 38.5959 89.4827 38.458C89.7504 38.3202 89.9949 38.2975 90.2161 38.3902C90.8983 38.5759 91.1281 38.9821 90.9056 39.609L87.8429 50.1463C87.6948 50.4043 87.5654 50.5701 87.4546 50.6436C87.1775 50.8276 86.9007 50.8917 86.6241 50.8359ZM70.7055 101.169C70.928 100.542 71.3527 100.34 71.9795 100.563C72.5695 100.73 72.7994 101.136 72.6691 101.781L69.468 112.291C69.4676 112.531 69.3565 112.724 69.1349 112.871C68.9133 113.019 68.618 113.055 68.2492 112.98C67.6224 112.758 67.4202 112.333 67.6427 111.706L70.7055 101.169ZM82.1431 49.8593C81.479 49.8212 81.1938 49.4517 81.2872 48.7509L82.5241 37.989C82.5622 37.3249 82.9133 37.0119 83.5773 37.05C84.2596 37.2357 84.5448 37.6052 84.4332 38.1584L83.2515 49.0035C83.2324 49.3355 83.0844 49.5935 82.8073 49.7775C82.6411 49.8879 82.4197 49.9151 82.1431 49.8593ZM76.3501 101.373C76.9956 101.503 77.2992 101.9 77.2612 102.565L76.0795 113.41C76.0236 113.686 75.8572 113.916 75.5801 114.1C75.3585 114.248 75.1555 114.303 74.9711 114.265C74.307 114.227 73.994 113.876 74.0321 113.212L75.2969 102.312C75.335 101.648 75.6861 101.335 76.3501 101.373ZM77.688 49.8236C77.0054 49.8777 76.637 49.5635 76.5829 48.8808L75.9107 37.9494C75.8934 37.3221 76.2077 36.9538 76.8536 36.8442C77.5176 36.8823 77.8583 37.215 77.8756 37.8422L78.5477 48.7736C78.6209 49.1243 78.4913 49.41 78.1588 49.6308C77.9372 49.7779 77.7802 49.8422 77.688 49.8236ZM80.8604 101.492C81.543 101.438 81.9114 101.752 81.9655 102.435L82.6376 113.366C82.6554 113.753 82.4981 114.058 82.1656 114.278C81.9994 114.389 81.8424 114.453 81.6948 114.471C81.0676 114.488 80.7269 114.156 80.6728 113.473L79.9176 102.597C79.9002 101.97 80.2145 101.601 80.8604 101.492ZM73.1765 50.4243C72.5307 50.5338 72.1253 50.284 71.9603 49.675L69.4337 39.0169C69.3242 38.3711 69.5463 37.9841 70.0999 37.8559C70.709 37.691 71.1144 37.9408 71.3161 38.6052L73.9258 49.2081C73.9618 49.7431 73.8135 50.121 73.4811 50.3418C73.3702 50.4154 73.2687 50.4429 73.1765 50.4243ZM85.3719 100.891C86.0731 100.745 86.4785 100.995 86.5881 101.64L89.1147 112.298C89.3168 112.723 89.1963 113.083 88.753 113.377C88.6422 113.451 88.513 113.496 88.3654 113.515C87.8485 113.698 87.4615 113.476 87.2044 112.848L84.6226 102.107C84.4763 101.406 84.726 101.001 85.3719 100.891ZM68.8572 51.8554C68.2295 52.1125 67.8055 51.955 67.5852 51.3827L63.1483 41.2747C62.8911 40.647 63.0764 40.2046 63.7041 39.9475C64.3317 39.6903 64.7742 39.8756 65.0313 40.5033L69.413 50.5282C69.6334 51.1005 69.5219 51.5338 69.0786 51.8281C69.0232 51.8649 68.9494 51.874 68.8572 51.8554ZM94.8443 111.368C94.2166 111.625 93.7742 111.44 93.5171 110.812L89.1354 100.787C88.8782 100.16 89.0635 99.7171 89.6912 99.46C89.9128 99.3128 90.1573 99.2902 90.4246 99.3921C90.6919 99.4941 90.8715 99.6743 90.9632 99.9327L95.345 109.958C95.5653 110.53 95.4538 110.963 95.0106 111.258L94.8443 111.368Z" fill="white" stroke="white" stroke-width="2"/>
</g>
<defs>
<linearGradient id="paint0_linear_2_2" x1="65.1412" y1="154.371" x2="96.6784" y2="7.30414" gradientUnits="userSpaceOnUse">
<stop stop-color="#3754FB"/>
<stop offset="1" stop-color="#FC01FF"/>
</linearGradient>
<clipPath id="clip0_2_2">
<rect width="153" height="151" fill="white"/>
</clipPath>
</defs>
</svg>
